<svg width="200" height="252" viewBox="0 0 200 252" fill="none" xmlns="http://www.w3.org/2000/svg">
<g clip-path="url(#clip0_104_2)">
<path d="M53.1828 116.56C53.2694 108.592 53.3189 100.624 54.7974 92.7429C56.5419 83.4636 60.2722 75.3288 67.6523 69.1673C70.3557 66.9093 73.1209 64.7256 75.8614 62.511L77.6492 61.0634C75.6325 58.6384 73.7334 56.3804 71.8651 54.0915C64.8129 45.4618 60.4268 35.8608 60.73 24.3977C61.0269 13.2626 66.7182 5.60406 75.8491 -0.0253906C74.4324 2.0408 72.9848 4.04512 71.6424 6.11131C68.9645 10.1113 67.8281 14.9469 68.4442 19.721C69.3226 26.8351 72.2672 33.1079 76.6656 38.6941C82.3136 45.8515 89.7433 50.8747 97.3771 55.6133C97.4389 55.6566 97.5812 55.5638 97.9462 55.4525C94.3829 49.6498 92.3786 43.4574 93.4488 36.6217C94.4695 29.9282 97.5379 24.2802 102.561 19.0529C102.041 22.3377 101.559 25.0597 101.188 27.8001C100.384 33.8255 101.571 39.3065 106.242 43.5255C108.834 45.8127 111.547 47.9583 114.371 49.9529C120.322 54.2833 126.539 58.2487 132.311 62.7955C140.934 69.6003 146.236 78.261 145.66 89.7488C145.583 90.8597 145.747 91.9742 146.143 93.0151C147.982 97.4092 148.995 102.105 149.131 106.866C149.193 108.957 148.921 111.048 148.803 113.145H148.129C147.937 112.601 147.733 112.062 147.553 111.512C146.012 106.731 143.39 102.37 139.889 98.7683C139.096 97.9224 138.137 97.2482 137.073 96.7875C136.009 96.3267 134.862 96.0892 133.702 96.0897C127.306 95.7866 121.429 94.0792 116.727 89.3653C115.002 87.679 113.189 86.0848 111.296 84.5895C109.081 82.7955 106.545 81.5273 103.656 81.7129C95.9356 82.2016 88.8091 88.8394 89.6628 97.9455C90.0589 101.311 90.923 104.605 92.2301 107.732C94.5165 113.714 98.2435 119.039 103.081 123.235C109.354 128.611 116.647 130.256 124.695 129.174C132.41 128.134 139.852 125.981 145.803 120.896C168.407 101.595 178.28 77.0485 175.144 47.4166C173.916 35.9511 170.12 24.9097 164.04 15.1123C161.837 11.5181 159.32 8.11565 156.95 4.62663C160.91 7.33673 164.702 10.2826 168.308 13.4482C174.791 19.2446 180.68 25.6102 184.912 33.2749C195.602 53.1015 198.272 76.2752 192.372 98.0136C185.172 123.377 169.719 141.936 146.366 154.067C145.809 154.351 145.283 154.685 144.745 155.007L144.992 155.49C157.731 154.055 169.741 148.815 179.456 140.451C189.471 131.908 196.196 121.199 200 108.611C192.032 151.747 154.587 188.567 104.188 190.739C50.3681 193.065 8.03588 153.943 0 106.959C3.35028 119.707 10.4281 131.166 20.3279 139.869C29.8175 148.246 49.867 156.919 55.5892 155.013C54.9706 154.679 54.451 154.395 53.9128 154.098C43.0778 148.715 33.4702 141.155 25.6913 131.889C13.5849 117.506 6.79245 100.884 5.11598 82.2078C4.36912 73.8912 4.86534 65.5097 6.5883 57.3393C8.6545 47.5341 11.9641 38.162 17.5626 29.8169C22.9689 21.8709 29.627 14.8535 37.2781 9.0374C37.6183 8.77139 38.0142 8.57343 38.7071 8.14658C11.8466 50.2128 26.8419 97.1228 53.0282 119.214C53.09 118.119 53.1766 117.339 53.1828 116.56ZM130.684 74.7163C129.057 76.2752 128.828 78.9168 130.065 81.3851C130.735 82.7589 131.844 83.87 133.217 84.5423C134.589 85.2146 136.147 85.4097 137.643 85.0968C136.758 80.8646 134.263 77.1423 130.684 74.7163Z" fill="#F20519"/>
<path d="M38.1379 238.089H18.8741V248.779C18.8345 249.207 18.9228 249.637 19.1277 250.016C19.4131 250.311 19.7863 250.507 20.1917 250.573V251.185H14.321V250.566C14.7254 250.503 15.0973 250.307 15.3789 250.01C15.5892 249.633 15.6798 249.202 15.6387 248.772V225.531C15.678 225.101 15.5852 224.669 15.3727 224.294C15.091 224.002 14.7216 223.811 14.321 223.749V223.1H20.1979V223.755C19.7965 223.823 19.4276 224.018 19.1463 224.312C18.9304 224.687 18.8374 225.119 18.8803 225.549V235.447H38.1379V225.549C38.1757 225.119 38.0807 224.687 37.8657 224.312C37.5885 224.018 37.2201 223.826 36.8203 223.768V223.1H42.6848V223.755C42.2849 223.822 41.9177 224.017 41.6393 224.312C41.4209 224.686 41.3257 225.119 41.3671 225.549V248.797C41.3326 249.218 41.4276 249.639 41.6393 250.003C41.9159 250.303 42.2833 250.503 42.6848 250.573V251.185H36.8203V250.566C37.2191 250.497 37.5853 250.302 37.8657 250.01C38.0842 249.636 38.1794 249.203 38.1379 248.772V238.089Z" fill="white"/>
<path d="M68.8092 243.322H53.7705L51.2961 248.655C51.1161 248.987 50.9987 249.35 50.9496 249.725C50.9496 250.14 51.3517 250.412 52.1869 250.554V251.185H45.8955V250.566C46.3806 250.507 46.8326 250.289 47.1822 249.948C47.6617 249.317 48.053 248.624 48.3452 247.888L58.6453 225.667C58.8308 225.326 58.9563 224.955 59.0164 224.572C59.0164 224.213 58.6762 223.953 58.0081 223.768V223.1H64.8439V223.755C64.1696 223.978 63.8355 224.263 63.8355 224.621C63.906 224.983 64.0311 225.331 64.2067 225.655L74.0675 247.071C74.4689 248.036 74.9511 248.965 75.5089 249.849C75.9399 250.226 76.4704 250.471 77.0369 250.554V251.185H70.3619V250.566C71.16 250.455 71.5621 250.152 71.5621 249.657C71.4845 249.21 71.3318 248.779 71.1105 248.383L68.8092 243.322ZM67.6153 240.668L61.2868 226.78L54.9645 240.668H67.6153Z" fill="white"/>
<path d="M84.5345 238.565V248.784C84.4988 249.203 84.594 249.622 84.8067 249.985C85.0833 250.284 85.4507 250.484 85.8522 250.554V251.185H79.9877V250.566C80.3865 250.496 80.7527 250.301 81.0331 250.009C81.2516 249.636 81.3468 249.203 81.3053 248.772V225.531C81.3431 225.1 81.2481 224.668 81.0331 224.293C80.7559 223.999 80.3875 223.807 79.9877 223.749V223.099H95.4099C97.089 223.066 98.7677 223.18 100.427 223.44C101.56 223.628 102.647 224.029 103.631 224.621C104.573 225.211 105.352 226.028 105.896 226.997C106.562 228.17 106.904 229.501 106.885 230.851C106.92 231.827 106.748 232.8 106.38 233.705C106.012 234.61 105.457 235.427 104.751 236.103C103.328 237.455 101.375 238.229 98.8927 238.423L106.038 249.521C106.224 249.845 106.495 250.113 106.822 250.295C107.149 250.477 107.52 250.566 107.894 250.554V251.185H101.361V250.566C102.035 250.455 102.369 250.263 102.369 249.991C102.199 249.51 101.955 249.06 101.646 248.655L95.2614 238.565H84.5345ZM84.5345 235.886H95.9233C97.0977 235.91 98.2723 235.846 99.4371 235.694C100.17 235.579 100.877 235.338 101.528 234.983C102.945 234.16 103.65 232.775 103.65 230.838C103.65 228.902 102.92 227.504 101.466 226.681C100.797 226.314 100.068 226.069 99.3134 225.957C98.0944 225.809 96.8665 225.747 95.6388 225.772H84.5345V235.886Z" fill="white"/>
<path d="M116.641 226.663V248.779C116.608 249.198 116.701 249.618 116.907 249.985C117.188 250.282 117.556 250.481 117.959 250.554V251.185H112.391V250.566C112.795 250.503 113.167 250.307 113.449 250.01C113.659 249.633 113.75 249.202 113.709 248.772V225.531C113.748 225.101 113.655 224.669 113.443 224.294C113.161 224.002 112.792 223.811 112.391 223.749V223.1H120.47V223.755C119.821 223.978 119.499 224.287 119.499 224.683C119.499 224.955 119.821 225.475 120.47 226.23L137.414 246.026V225.531C137.453 225.101 137.361 224.669 137.148 224.294C136.866 224.002 136.497 223.811 136.096 223.749V223.1H141.664V223.755C141.263 223.817 140.894 224.008 140.612 224.3C140.403 224.677 140.31 225.107 140.346 225.537V248.785C140.306 249.215 140.399 249.647 140.612 250.022C140.897 250.312 141.264 250.507 141.664 250.579V251.185H135.175V250.566C135.793 250.399 136.121 250.121 136.121 249.719C135.983 249.151 135.682 248.635 135.255 248.234L116.641 226.663Z" fill="white"/>
<path d="M149.162 248.779V225.531C149.201 225.101 149.108 224.669 148.896 224.294C148.614 224.002 148.245 223.811 147.844 223.749V223.1H153.715V223.755C153.314 223.824 152.946 224.019 152.663 224.312C152.447 224.687 152.354 225.119 152.397 225.549V248.797C152.358 249.226 152.446 249.656 152.651 250.034C152.936 250.33 153.309 250.525 153.715 250.591V251.185H147.844V250.566C148.248 250.503 148.62 250.307 148.902 250.01C149.111 249.635 149.202 249.206 149.162 248.779Z" fill="white"/>
<path d="M173.072 236.115L182.351 248.018C183.629 249.638 184.749 250.484 185.71 250.554V251.185H178.472V250.566C179.134 250.455 179.462 250.22 179.462 249.861C179.462 249.601 179.085 248.995 178.33 248.005L171.073 238.726L163.91 248.005C163.143 248.995 162.759 249.595 162.759 249.799C162.759 250.127 163.087 250.375 163.749 250.542V251.185H156.944V250.566C157.54 250.466 158.103 250.222 158.583 249.855C159.244 249.318 159.829 248.693 160.322 247.999L169.286 236.443L162.27 227.442C161.5 226.386 160.674 225.372 159.796 224.405C159.407 224.062 158.928 223.837 158.416 223.755V223.1H165.592V223.755C164.918 223.959 164.578 224.263 164.578 224.665C164.692 225.29 164.986 225.869 165.425 226.329L171.308 233.864L177.123 226.347C177.617 225.832 177.957 225.189 178.107 224.492C178.107 224.12 177.779 223.879 177.123 223.768V223.1H183.805V223.755C183.159 223.913 182.568 224.245 182.097 224.714C181.242 225.559 180.456 226.471 179.746 227.442L173.072 236.115Z" fill="white"/>
</g>
<defs>
<clipPath id="clip0_104_2">
<rect width="200" height="251.209" fill="white"/>
</clipPath>
</defs>
</svg>
