<svg width="31" height="22" viewBox="0 0 31 22" fill="none" xmlns="http://www.w3.org/2000/svg">
<g clip-path="url(#clip0_940_3633)">
<path d="M29.5376 3.29004C29.3656 2.65413 29.0299 2.07439 28.5641 1.60855C28.0983 1.14271 27.5185 0.807025 26.8826 0.634922C24.5546 0 15.185 0 15.185 0C15.185 0 5.81491 0.0192187 3.48686 0.654141C2.85094 0.826254 2.27121 1.16196 1.80539 1.62782C1.33957 2.09368 1.00392 2.67344 0.831858 3.30938C0.127679 7.44586 -0.145485 13.7489 0.851194 17.7199C1.02327 18.3558 1.35893 18.9356 1.82475 19.4014C2.29057 19.8673 2.87029 20.2029 3.50619 20.375C5.83424 21.01 15.2041 21.01 15.2041 21.01C15.2041 21.01 24.5738 21.01 26.9017 20.375C27.5377 20.203 28.1174 19.8673 28.5833 19.4014C29.0491 18.9356 29.3848 18.3559 29.5569 17.7199C30.2996 13.5776 30.5285 7.2784 29.5376 3.29004Z" fill="#FF0000"/>
<path d="M12.2026 15.007L19.9754 10.5049L12.2026 6.00281V15.007Z" fill="white"/>
</g>
<defs>
<clipPath id="clip0_940_3633">
<rect width="30" height="21.0938" fill="white" transform="translate(0.200195)"/>
</clipPath>
</defs>
</svg>
