<svg width="29" height="29" viewBox="0 0 29 29" fill="none" xmlns="http://www.w3.org/2000/svg">
<g clip-path="url(#clip0_940_3619)">
<path d="M28.8 14.4C28.8 6.44715 22.3528 0 14.4 0C6.44715 0 0 6.44715 0 14.4C0 21.5874 5.2659 27.5448 12.15 28.6251V18.5625H8.49375V14.4H12.15V11.2275C12.15 7.6185 14.2999 5.625 17.5891 5.625C19.1646 5.625 20.8125 5.90625 20.8125 5.90625V9.45H18.9967C17.2079 9.45 16.65 10.56 16.65 11.6989V14.4H20.6437L20.0053 18.5625H16.65V28.6251C23.5341 27.5448 28.8 21.5875 28.8 14.4Z" fill="#1877F2"/>
<path d="M20.0052 18.5625L20.6437 14.4H16.6499V11.6989C16.6499 10.5599 17.2078 9.45 18.9967 9.45H20.8124V5.90625C20.8124 5.90625 19.1645 5.625 17.5889 5.625C14.2998 5.625 12.1499 7.6185 12.1499 11.2275V14.4H8.49365V18.5625H12.1499V28.6251C12.8942 28.7417 13.6465 28.8002 14.3999 28.8C15.1533 28.8002 15.9056 28.7417 16.6499 28.6251V18.5625H20.0052Z" fill="white"/>
</g>
<defs>
<clipPath id="clip0_940_3619">
<rect width="28.8" height="28.8" fill="white"/>
</clipPath>
</defs>
</svg>
