<svg width="30" height="29" viewBox="0 0 30 29" fill="none" xmlns="http://www.w3.org/2000/svg">
<g clip-path="url(#clip0_940_3622)">
<path d="M22.8498 0H7.5498C3.82188 0 0.799805 3.02208 0.799805 6.75V22.05C0.799805 25.7779 3.82188 28.8 7.5498 28.8H22.8498C26.5777 28.8 29.5998 25.7779 29.5998 22.05V6.75C29.5998 3.02208 26.5777 0 22.8498 0Z" fill="url(#paint0_radial_940_3622)"/>
<path d="M22.8498 0H7.5498C3.82188 0 0.799805 3.02208 0.799805 6.75V22.05C0.799805 25.7779 3.82188 28.8 7.5498 28.8H22.8498C26.5777 28.8 29.5998 25.7779 29.5998 22.05V6.75C29.5998 3.02208 26.5777 0 22.8498 0Z" fill="url(#paint1_radial_940_3622)"/>
<path d="M15.2007 3.14999C12.1454 3.14999 11.7619 3.16338 10.562 3.21794C9.36433 3.27284 8.54679 3.46241 7.83152 3.74062C7.09149 4.02794 6.46386 4.41236 5.83858 5.03786C5.21274 5.66324 4.82833 6.29088 4.54011 7.03057C4.26111 7.74607 4.07132 8.56394 4.01743 9.76106C3.96377 10.9611 3.94971 11.3447 3.94971 14.4001C3.94971 17.4555 3.96321 17.8378 4.01766 19.0377C4.07278 20.2354 4.26234 21.0529 4.54033 21.7682C4.82788 22.5082 5.21229 23.1358 5.83779 23.7611C6.46296 24.387 7.09059 24.7723 7.83006 25.0596C8.54589 25.3378 9.36354 25.5274 10.561 25.5823C11.761 25.6368 12.1442 25.6502 15.1994 25.6502C18.255 25.6502 18.6373 25.6368 19.8372 25.5823C21.0349 25.5274 21.8533 25.3378 22.5691 25.0596C23.3088 24.7723 23.9356 24.387 24.5606 23.7611C25.1864 23.1358 25.5707 22.5082 25.8591 21.7685C26.1356 21.0529 26.3255 20.2351 26.3818 19.0379C26.4356 17.838 26.4497 17.4555 26.4497 14.4001C26.4497 11.3447 26.4356 10.9613 26.3818 9.76128C26.3255 8.56361 26.1356 7.74618 25.8591 7.03091C25.5707 6.29088 25.1864 5.66324 24.5606 5.03786C23.9349 4.41213 23.309 4.02772 22.5685 3.74073C21.8513 3.46241 21.0333 3.27273 19.8356 3.21794C18.6356 3.16338 18.2535 3.14999 15.1972 3.14999H15.2007ZM14.1915 5.17736C14.4911 5.17691 14.8253 5.17736 15.2007 5.17736C18.2046 5.17736 18.5605 5.18816 19.7467 5.24204C20.8436 5.29222 21.439 5.47548 21.8355 5.62949C22.3606 5.83334 22.7348 6.07713 23.1284 6.47099C23.5221 6.86474 23.7658 7.23971 23.9702 7.76474C24.1242 8.16074 24.3077 8.75609 24.3577 9.85297C24.4115 11.0389 24.4232 11.3951 24.4232 14.3975C24.4232 17.3999 24.4115 17.7562 24.3577 18.9421C24.3075 20.0389 24.1242 20.6343 23.9702 21.0304C23.7664 21.5554 23.5221 21.9293 23.1284 22.3228C22.7346 22.7166 22.3608 22.9602 21.8355 23.1642C21.4394 23.3189 20.8436 23.5017 19.7467 23.5519C18.5608 23.6058 18.2046 23.6175 15.2007 23.6175C12.1967 23.6175 11.8407 23.6058 10.6548 23.5519C9.55794 23.5012 8.96259 23.318 8.56569 23.164C8.04077 22.96 7.66569 22.7163 7.27194 22.3226C6.87819 21.9288 6.63452 21.5548 6.43011 21.0295C6.27609 20.6334 6.09261 20.038 6.04266 18.9412C5.98877 17.7552 5.97797 17.399 5.97797 14.3947C5.97797 11.3905 5.98877 11.0361 6.04266 9.85016C6.09283 8.75328 6.27609 8.15793 6.43011 7.76137C6.63407 7.23633 6.87819 6.86137 7.27206 6.46762C7.66581 6.07387 8.04077 5.83008 8.56581 5.62578C8.96237 5.47109 9.55794 5.28828 10.6548 5.23788C11.6926 5.19097 12.0948 5.17691 14.1915 5.17454V5.17736ZM21.206 7.04531C20.4607 7.04531 19.856 7.64943 19.856 8.39486C19.856 9.14017 20.4607 9.74486 21.206 9.74486C21.9513 9.74486 22.556 9.14017 22.556 8.39486C22.556 7.64954 21.9513 7.04486 21.206 7.04486V7.04531ZM15.2007 8.62267C12.0102 8.62267 9.42339 11.2095 9.42339 14.4001C9.42339 17.5907 12.0102 20.1763 15.2007 20.1763C18.3913 20.1763 20.9773 17.5907 20.9773 14.4001C20.9773 11.2096 18.3911 8.62267 15.2005 8.62267H15.2007ZM15.2007 10.65C17.2717 10.65 18.9508 12.3289 18.9508 14.4001C18.9508 16.4711 17.2717 18.1502 15.2007 18.1502C13.1296 18.1502 11.4508 16.4711 11.4508 14.4001C11.4508 12.3289 13.1296 10.65 15.2007 10.65Z" fill="white"/>
</g>
<defs>
<radialGradient id="paint0_radial_940_3622" cx="0" cy="0" r="1" gradientUnits="userSpaceOnUse" gradientTransform="translate(8.4498 31.0182) rotate(-90) scale(28.5429 26.5472)">
<stop stop-color="#FFDD55"/>
<stop offset="0.1" stop-color="#FFDD55"/>
<stop offset="0.5" stop-color="#FF543E"/>
<stop offset="1" stop-color="#C837AB"/>
</radialGradient>
<radialGradient id="paint1_radial_940_3622" cx="0" cy="0" r="1" gradientUnits="userSpaceOnUse" gradientTransform="translate(-4.02431 2.07461) rotate(78.681) scale(12.7588 52.5924)">
<stop stop-color="#3771C8"/>
<stop offset="0.128" stop-color="#3771C8"/>
<stop offset="1" stop-color="#6600FF" stop-opacity="0"/>
</radialGradient>
<clipPath id="clip0_940_3622">
<rect width="28.8" height="28.8" fill="white" transform="translate(0.799805)"/>
</clipPath>
</defs>
</svg>
