<svg width="30" height="29" viewBox="0 0 30 29" fill="none" xmlns="http://www.w3.org/2000/svg">
<g clip-path="url(#clip0_940_3628)">
<path d="M22.4499 0H7.1499C3.42198 0 0.399902 3.02208 0.399902 6.75V22.05C0.399902 25.7779 3.42198 28.8 7.1499 28.8H22.4499C26.1778 28.8 29.1999 25.7779 29.1999 22.05V6.75C29.1999 3.02208 26.1778 0 22.4499 0Z" fill="white"/>
<path d="M22.4499 0H7.1499C3.42198 0 0.399902 3.02208 0.399902 6.75V22.05C0.399902 25.7779 3.42198 28.8 7.1499 28.8H22.4499C26.1778 28.8 29.1999 25.7779 29.1999 22.05V6.75C29.1999 3.02208 26.1778 0 22.4499 0Z" fill="#0A66C2"/>
<path d="M21.1802 24.4896H24.4731C24.5924 24.4896 24.7069 24.4422 24.7913 24.3578C24.8757 24.2734 24.9231 24.159 24.9231 24.0397L24.9248 17.0824C24.9248 13.4461 24.1412 10.651 19.8918 10.651C18.2764 10.591 16.753 11.4237 15.931 12.8142C15.927 12.8209 15.9209 12.8262 15.9136 12.8292C15.9063 12.8321 15.8982 12.8326 15.8907 12.8305C15.8831 12.8285 15.8764 12.824 15.8716 12.8178C15.8668 12.8116 15.8641 12.8039 15.8641 12.7961V11.4367C15.8641 11.3174 15.8166 11.2029 15.7323 11.1185C15.6479 11.0342 15.5334 10.9867 15.4141 10.9867H12.2891C12.1698 10.9867 12.0553 11.0342 11.9709 11.1185C11.8866 11.2029 11.8391 11.3174 11.8391 11.4367V24.039C11.8391 24.1583 11.8866 24.2728 11.9709 24.3572C12.0553 24.4416 12.1698 24.489 12.2891 24.489H15.5818C15.7011 24.489 15.8156 24.4416 15.9 24.3572C15.9844 24.2728 16.0318 24.1583 16.0318 24.039V17.8095C16.0318 16.0481 16.3659 14.3423 18.5497 14.3423C20.7023 14.3423 20.7302 16.3578 20.7302 17.9236V24.0396C20.7302 24.1589 20.7777 24.2734 20.862 24.3578C20.9464 24.4421 21.0609 24.4896 21.1802 24.4896ZM4.6748 6.70814C4.6748 8.04284 5.77359 9.14107 7.1084 9.14107C8.44288 9.14096 9.54099 8.04206 9.54099 6.70758C9.54077 5.37311 8.44254 4.27499 7.10795 4.27499C5.77303 4.27499 4.6748 5.37344 4.6748 6.70814ZM5.45769 24.4896H8.75473C8.87408 24.4896 8.98854 24.4421 9.07293 24.3578C9.15732 24.2734 9.20473 24.1589 9.20473 24.0396V11.4367C9.20473 11.3174 9.15732 11.2029 9.07293 11.1185C8.98854 11.0342 8.87408 10.9867 8.75473 10.9867H5.45769C5.33834 10.9867 5.22389 11.0342 5.13949 11.1185C5.0551 11.2029 5.00769 11.3174 5.00769 11.4367V24.0396C5.00769 24.1589 5.0551 24.2734 5.13949 24.3578C5.22389 24.4421 5.33834 24.4896 5.45769 24.4896Z" fill="white"/>
</g>
<defs>
<clipPath id="clip0_940_3628">
<rect width="28.8" height="28.8" fill="white" transform="translate(0.399902)"/>
</clipPath>
</defs>
</svg>
