<svg width="21" height="20" viewBox="0 0 21 20" fill="none" xmlns="http://www.w3.org/2000/svg">
<g clip-path="url(#clip0_1025_1117)">
<path fill-rule="evenodd" clip-rule="evenodd" d="M2.5668 0.638567C2.78552 0.420178 3.04815 0.250765 3.3373 0.141555C3.62644 0.0323445 3.93549 -0.0141693 4.24397 0.00509601C4.55245 0.0243613 4.85332 0.108966 5.12663 0.253302C5.39994 0.397639 5.63945 0.598413 5.8293 0.842317L8.07305 3.72482C8.4843 4.25357 8.6293 4.94232 8.4668 5.59232L7.78305 8.32982C7.7477 8.4716 7.74961 8.62012 7.78859 8.76095C7.82758 8.90179 7.90232 9.03014 8.00555 9.13357L11.0768 12.2048C11.1803 12.3083 11.3089 12.3831 11.45 12.4221C11.5911 12.4611 11.7398 12.4629 11.8818 12.4273L14.618 11.7436C14.9388 11.6634 15.2736 11.6571 15.5972 11.7254C15.9207 11.7936 16.2245 11.9344 16.4856 12.1373L19.3681 14.3798C20.4043 15.1861 20.4993 16.7173 19.5718 17.6436L18.2793 18.9361C17.3543 19.8611 15.9718 20.2673 14.683 19.8136C11.3845 18.653 8.38964 16.7646 5.92055 14.2886C3.44466 11.8198 1.55631 8.82539 0.39555 5.52732C-0.0569504 4.23982 0.3493 2.85607 1.2743 1.93107L2.5668 0.638567Z" fill="#190F6C"/>
</g>
<defs>
<clipPath id="clip0_1025_1117">
<rect width="20" height="20" fill="white" transform="translate(0.210449)"/>
</clipPath>
</defs>
</svg>
