<svg width="52" height="51" viewBox="0 0 52 51" fill="none" xmlns="http://www.w3.org/2000/svg">
<g clip-path="url(#clip0_1025_1084)">
<path d="M46.4032 49.9086H4.24717C3.75902 49.9086 3.27565 49.8125 2.82469 49.6256C2.37373 49.4387 1.964 49.1649 1.61892 48.8195C1.27384 48.4743 1.00016 48.0644 0.813538 47.6134C0.626912 47.1623 0.53099 46.6789 0.531251 46.1907V4.03471C0.531251 3.04919 0.92275 2.10402 1.61962 1.40715C2.31649 0.710284 3.26165 0.318787 4.24717 0.318787H46.4032C46.8913 0.318527 47.3747 0.414449 47.8258 0.601075C48.2769 0.787698 48.6867 1.06137 49.032 1.40645C49.3772 1.75154 49.6512 2.16126 49.838 2.61223C50.0249 3.0632 50.1211 3.54656 50.1211 4.03471V46.1907C50.1211 47.1768 49.7294 48.1224 49.0321 48.8197C48.3348 49.5169 47.3892 49.9086 46.4032 49.9086Z" fill="#1F3B71"/>
<path d="M46.4036 50.2277H4.24757C3.17731 50.2267 2.15118 49.801 1.39439 49.0443C0.637602 48.2875 0.211986 47.2614 0.210938 46.1911V4.03509C0.213032 2.96533 0.639052 1.94001 1.39568 1.18377C2.15229 0.427515 3.17782 0.00199683 4.24757 0.000427246H46.4036C47.4738 0.0014755 48.4999 0.427098 49.2567 1.18389C50.0135 1.94068 50.4391 2.96681 50.4402 4.03706V46.1911C50.4397 47.2615 50.0142 48.288 49.2573 49.0448C48.5004 49.8017 47.4739 50.2272 46.4036 50.2277ZM4.24757 0.637895C3.3469 0.638943 2.48343 0.9972 1.84655 1.63407C1.20969 2.27093 0.851429 3.13442 0.850381 4.03509V46.1911C0.851429 47.0918 1.20969 47.9552 1.84655 48.5921C2.48343 49.229 3.3469 49.5872 4.24757 49.5883H46.4036C47.3043 49.5872 48.1677 49.229 48.8046 48.5921C49.4415 47.9552 49.7997 47.0918 49.8007 46.1911V4.03509C49.7997 3.13407 49.4412 2.27029 48.8039 1.63337C48.1665 0.996442 47.3026 0.638419 46.4016 0.637895H4.24757Z" fill="white"/>
<path d="M41.6996 14.1231C41.6262 14.0675 41.5496 14.0166 41.4699 13.9706L41.3827 13.9212C40.0164 13.0997 38.3911 12.822 36.8295 13.1431C35.7438 13.3625 34.7344 13.8621 33.9014 14.5923C32.9473 15.4302 32.2638 16.5327 31.9375 17.7599C31.9315 17.7744 31.9275 17.7897 31.9257 17.8054C31.9188 17.8573 31.9308 17.9099 31.9593 17.9538C31.9771 17.9819 32.0013 18.0053 32.0298 18.0221C32.0584 18.039 32.0905 18.0488 32.1237 18.0509C32.1523 18.0528 32.181 18.0491 32.2082 18.0399C32.2354 18.0308 32.2605 18.0163 32.282 17.9974C32.2883 17.9892 32.2956 17.9819 32.3038 17.9756C32.9186 17.3584 33.7026 16.9374 34.5567 16.7661C35.2732 16.6202 36.0145 16.6542 36.7146 16.865C37.2957 17.0382 37.8348 17.3293 38.2984 17.7202C38.416 17.8617 38.5488 17.9898 38.6944 18.1023C39.0084 18.3418 39.3747 18.5033 39.7633 18.5735C40.119 18.6392 40.4846 18.6256 40.8344 18.5339C41.417 18.3784 41.9239 18.0179 42.2618 17.5185C42.5997 17.019 42.7459 16.4144 42.6736 15.8158C42.6328 15.4823 42.5251 15.1606 42.3572 14.8697C42.1891 14.5789 41.9641 14.3249 41.6955 14.1231" fill="#94C11F"/>
<path d="M14.8131 35.9458C14.7399 35.9993 14.6626 36.0508 14.5854 36.0983L14.4983 36.1478C13.1318 36.9689 11.5066 37.2466 9.94496 36.9258C8.85982 36.7068 7.85095 36.2071 7.01899 35.4766C6.06373 34.6394 5.37936 33.5367 5.05312 32.3091C5.0522 32.2939 5.0522 32.2787 5.05312 32.2636C5.04837 32.238 5.04873 32.2116 5.05416 32.1861C5.0596 32.1607 5.07002 32.1365 5.08481 32.1151C5.10301 32.0871 5.12753 32.0637 5.15641 32.0468C5.18529 32.03 5.21772 32.0202 5.2511 32.0181C5.27942 32.0161 5.30785 32.0198 5.33472 32.029C5.36159 32.0381 5.38634 32.0526 5.4075 32.0715L5.42927 32.0933C6.04148 32.706 6.82116 33.1242 7.67031 33.295C8.38652 33.4425 9.12811 33.4092 9.8282 33.198C10.409 33.0242 10.948 32.7331 11.412 32.3428C11.5296 32.2013 11.6623 32.0732 11.8079 31.9607C12.1214 31.7217 12.4871 31.5602 12.875 31.4895C13.2305 31.4238 13.5962 31.4373 13.946 31.5291C14.5303 31.683 15.0391 32.0433 15.3783 32.5434C15.7175 33.0435 15.8641 33.6494 15.7911 34.2492C15.7505 34.5827 15.6431 34.9045 15.475 35.1955C15.3069 35.4863 15.0818 35.7402 14.8131 35.9419" fill="#94C11F"/>
<path d="M10.9222 28.3874C10.9222 28.3973 9.93237 29.3773 8.6515 29.3773C8.32873 29.3862 8.00758 29.3274 7.70891 29.2046C7.41021 29.0819 7.14055 28.8979 6.91727 28.6646C6.49362 28.2076 6.26246 27.6049 6.27188 26.9818C6.27188 25.6139 7.24591 24.62 8.58814 24.62C9.3376 24.6362 10.0547 24.9288 10.6016 25.4416L10.7025 25.5445L11.7042 23.9885L11.6508 23.9231C11.6092 23.8737 10.6035 22.6898 8.4832 22.6898C7.8845 22.6761 7.28905 22.7818 6.7316 23.0006C6.17417 23.2196 5.66592 23.5473 5.2365 23.9647C4.44744 24.7733 4.01166 25.8621 4.02492 26.9917C4.01628 27.5543 4.11887 28.1131 4.32678 28.636C4.5347 29.1588 4.84386 29.6354 5.2365 30.0385C6.0561 30.8601 7.18057 31.2936 8.4832 31.2936C10.6609 31.2936 11.815 30.0088 11.8646 29.9533L11.916 29.894L11.0351 28.2765L10.9222 28.3874Z" fill="white"/>
<path d="M16.7591 22.6898C16.2029 22.6782 15.65 22.7789 15.1336 22.9861C14.6171 23.1933 14.1479 23.5025 13.7539 23.8954C12.9739 24.7357 12.5533 25.8476 12.5819 26.9937C12.5819 29.4861 14.4369 31.2936 16.9927 31.2936C18.1953 31.3051 19.3627 30.8889 20.287 30.1196L20.3503 30.0583L19.4733 28.429L19.3664 28.522C19.3664 28.522 18.3646 29.3713 17.1352 29.3713C16.5827 29.3814 16.0432 29.2018 15.6069 28.8625C15.1893 28.5139 14.9226 28.0174 14.8626 27.4767H20.3602L20.3701 27.3738C20.3701 27.352 20.4176 26.8313 20.4176 26.5937C20.4176 25.4851 20.0929 24.5289 19.4812 23.8222C18.8279 23.0738 17.8855 22.6779 16.7571 22.6779M16.7116 24.4438C17.553 24.4438 18.0974 24.9902 18.1746 25.8791H14.9377C15.1516 24.9783 15.8069 24.4438 16.7195 24.4438" fill="white"/>
<path d="M34.3636 19.7416H32.1582V21.7887H34.3636V19.7416Z" fill="white"/>
<path d="M34.3794 22.6841H32.1582V31.2938H34.3794V22.6841Z" fill="white"/>
<path d="M38.553 19.7416H36.3477V21.7887H38.553V19.7416Z" fill="white"/>
<path d="M38.5689 22.6841H36.3477V31.2938H38.5689V22.6841Z" fill="white"/>
<path d="M43.6509 26.1102C42.958 25.833 42.3622 25.5935 42.3622 25.2193C42.3622 24.7719 42.8492 24.6135 43.2669 24.6135C43.9515 24.609 44.6165 24.8412 45.1496 25.2708L45.2605 25.3757L46.1038 23.693L46.0464 23.6356C46.0088 23.596 45.1139 22.6893 43.2749 22.6893C41.3763 22.6893 40.1073 23.6791 40.1073 25.156C40.1073 26.7635 41.5287 27.3475 42.671 27.8147C43.3817 28.1058 43.9974 28.3592 43.9974 28.765C43.9974 29.1708 43.5262 29.3708 43.061 29.3708C42.2827 29.3488 41.5379 29.0497 40.9605 28.5275L40.8615 28.4265L39.8262 30.0102L39.8875 30.0755C40.7534 30.8775 41.8969 31.3119 43.0769 31.2872C44.9437 31.2872 46.2444 30.2537 46.2444 28.7749C46.2444 27.1495 44.8011 26.5695 43.6431 26.1043" fill="white"/>
<path d="M23.9547 19.7416H21.7275V31.2933H23.9547V19.7416Z" fill="white"/>
<path d="M30.7555 29.2647L30.6168 29.2944C30.5057 29.3137 30.393 29.323 30.2803 29.3221C29.0014 29.3221 28.8113 28.451 28.8113 27.9363V24.4975H30.6307V22.6841H28.8153V20.3777H26.6376V22.6841H25.5547V24.4975H26.5901V28.1818C26.5901 29.3934 27.0276 30.2704 27.8908 30.791C28.5451 31.1495 29.283 31.3278 30.0289 31.3077C30.2411 31.3105 30.4532 31.2939 30.6623 31.2582L30.7555 31.2404V29.2607V29.2647Z" fill="white"/>
</g>
<defs>
<clipPath id="clip0_1025_1084">
<rect width="51" height="50.2273" fill="white" transform="translate(0.210449)"/>
</clipPath>
</defs>
</svg>
