<svg width="17" height="16" viewBox="0 0 17 16" fill="none" xmlns="http://www.w3.org/2000/svg">
<g clip-path="url(#clip0_1025_1121)">
<path d="M1.13726 15.0703L1.13997 15.073C1.21207 15.1456 1.29781 15.2033 1.39226 15.2427C1.48671 15.2821 1.58802 15.3024 1.69035 15.3025C1.77646 15.3024 1.86197 15.2882 1.94347 15.2604L6.38116 13.7551L14.8968 5.23943C15.4174 4.7188 15.7098 4.0127 15.7098 3.27645C15.7097 2.5402 15.4172 1.83412 14.8966 1.31354C14.376 0.792959 13.6699 0.500517 12.9336 0.500549C12.1974 0.500582 11.4913 0.793086 10.9707 1.31371L2.4551 9.82934L0.94985 14.2669C0.902434 14.4049 0.894866 14.5535 0.928012 14.6956C0.961159 14.8377 1.03368 14.9675 1.13726 15.0703ZM11.6779 2.02081C12.0114 1.68985 12.4624 1.50453 12.9323 1.50543C13.4021 1.50633 13.8525 1.69338 14.1847 2.02562C14.517 2.35786 14.704 2.80821 14.7049 3.27806C14.7058 3.74791 14.5204 4.19897 14.1895 4.53246L13.0697 5.65228L10.558 3.14062L11.6779 2.02081ZM3.32729 10.3714L9.85091 3.84771L12.3626 6.35937L5.83891 12.883L2.03785 14.1724L3.32729 10.3714Z" fill="white"/>
</g>
<defs>
<clipPath id="clip0_1025_1121">
<rect width="16" height="16" fill="white" transform="translate(0.210449)"/>
</clipPath>
</defs>
</svg>
