<svg width="25" height="24" viewBox="0 0 25 24" fill="none" xmlns="http://www.w3.org/2000/svg">
<g clip-path="url(#clip0_1025_1102)">
<mask id="mask0_1025_1102" style="mask-type:luminance" maskUnits="userSpaceOnUse" x="0" y="0" width="25" height="24">
<path d="M0.210449 0H24.2104V24H0.210449V0Z" fill="white"/>
</mask>
<g mask="url(#mask0_1025_1102)">
<path fill-rule="evenodd" clip-rule="evenodd" d="M0.210449 0H24.2104V24H0.210449V0ZM8.98345 7.74C8.26553 7.45965 7.47515 7.4241 6.73496 7.63888C5.99478 7.85365 5.34618 8.30674 4.88983 8.92782C4.43347 9.5489 4.19488 10.3033 4.21108 11.0738C4.22728 11.8443 4.49736 12.588 4.97942 13.1894C5.46147 13.7907 6.12854 14.2161 6.8771 14.3996C7.62565 14.5831 8.41384 14.5144 9.11934 14.2041C9.82484 13.8938 10.4082 13.3593 10.7789 12.6836C11.1496 12.0079 11.2869 11.2287 11.1694 10.467C11.1493 10.3359 11.182 10.2022 11.2605 10.0953C11.3389 9.98831 11.4566 9.91691 11.5877 9.89675C11.7188 9.87659 11.8525 9.90933 11.9594 9.98777C12.0664 10.0662 12.1378 10.1839 12.1579 10.315C12.2503 10.9146 12.2204 11.5266 12.0702 12.1144C11.9199 12.7021 11.6524 13.2534 11.2837 13.7351C10.9149 14.2168 10.4526 14.619 9.92449 14.9175C9.39636 15.216 8.81333 15.4046 8.21045 15.472V16.5H9.21045C9.34306 16.5 9.47023 16.5527 9.564 16.6464C9.65777 16.7402 9.71045 16.8674 9.71045 17C9.71045 17.1326 9.65777 17.2598 9.564 17.3536C9.47023 17.4473 9.34306 17.5 9.21045 17.5H8.21045V19.5C8.21045 19.6326 8.15777 19.7598 8.064 19.8536C7.97023 19.9473 7.84306 20 7.71045 20C7.57784 20 7.45066 19.9473 7.3569 19.8536C7.26313 19.7598 7.21045 19.6326 7.21045 19.5V17.5H6.21045C6.07784 17.5 5.95066 17.4473 5.8569 17.3536C5.76313 17.2598 5.71045 17.1326 5.71045 17C5.71045 16.8674 5.76313 16.7402 5.8569 16.6464C5.95066 16.5527 6.07784 16.5 6.21045 16.5H7.21045V15.5C7.21045 15.4905 7.21045 15.4815 7.21145 15.4725C6.02764 15.3401 4.94456 14.7439 4.19945 13.8145C3.57971 13.0414 3.23247 12.0853 3.21161 11.0947C3.19076 10.104 3.49746 9.13417 4.08411 8.33565C4.67077 7.53712 5.50459 6.95455 6.45618 6.67833C7.40776 6.40211 8.42391 6.44769 9.34695 6.808C9.40895 6.83125 9.46572 6.86659 9.51395 6.91196C9.56218 6.95733 9.60092 7.01183 9.62792 7.07229C9.65492 7.13276 9.66964 7.19798 9.67123 7.26418C9.67281 7.33038 9.66123 7.39624 9.63716 7.45792C9.61309 7.51961 9.577 7.5759 9.531 7.62353C9.48499 7.67116 9.42998 7.70917 9.36917 7.73537C9.30835 7.76157 9.24294 7.77542 9.17672 7.77613C9.11051 7.77684 9.04481 7.76489 8.98345 7.74ZM12.4134 7.749C12.9482 7.53566 13.5274 7.45754 14.0995 7.52157C14.6717 7.58559 15.2193 7.78977 15.6936 8.11603C16.168 8.44228 16.5546 8.88053 16.8191 9.39193C17.0836 9.90332 17.2179 10.4721 17.21 11.0478C17.2021 11.6235 17.0523 12.1883 16.7739 12.6923C16.4955 13.1962 16.0971 13.6237 15.614 13.9369C15.1308 14.25 14.5779 14.4392 14.0042 14.4875C13.4305 14.5358 12.8537 14.4419 12.3249 14.214C12.2031 14.1616 12.0655 14.1596 11.9423 14.2087C11.8191 14.2577 11.7204 14.3537 11.6679 14.4755C11.6155 14.5973 11.6136 14.7349 11.6626 14.8582C11.7117 14.9814 11.8076 15.0801 11.9294 15.1325C12.823 15.5176 13.8173 15.6027 14.7633 15.3751C15.7093 15.1475 16.556 14.6194 17.1766 13.87C17.7971 13.1206 18.158 12.1902 18.2053 11.2184C18.2525 10.2465 17.9834 9.28555 17.4384 8.4795L20.195 5.7225L20.1789 6.9935C20.1781 7.05916 20.1902 7.12435 20.2145 7.18534C20.2389 7.24633 20.275 7.30192 20.3208 7.34896C20.3666 7.39599 20.4213 7.43354 20.4816 7.45945C20.5419 7.48537 20.6068 7.49915 20.6724 7.5C20.7381 7.50085 20.8033 7.48877 20.8643 7.46443C20.9253 7.44009 20.9809 7.40398 21.0279 7.35815C21.1229 7.2656 21.1772 7.13911 21.1789 7.0065L21.2169 3.9935L18.2039 4.0315C18.0713 4.03322 17.9448 4.08756 17.8523 4.18254C17.7597 4.27753 17.7087 4.40539 17.7104 4.538C17.7122 4.67061 17.7665 4.7971 17.8615 4.88965C17.9565 4.9822 18.0843 5.03322 18.2169 5.0315L19.4879 5.0155L16.7874 7.716C16.2964 7.25568 15.7083 6.91138 15.0666 6.70848C14.4248 6.50558 13.7457 6.44924 13.0793 6.54362C12.4129 6.63799 11.7761 6.88067 11.2159 7.25379C10.6557 7.6269 10.1864 8.12093 9.84245 8.6995C9.33603 9.5513 9.12494 10.5465 9.24195 11.5305C9.25823 11.6617 9.32576 11.781 9.4298 11.8625C9.53384 11.944 9.66591 11.981 9.79714 11.9654C9.92838 11.9498 10.0481 11.8829 10.1301 11.7793C10.2122 11.6757 10.2499 11.5438 10.2349 11.4125C10.1441 10.6472 10.3083 9.8733 10.7022 9.21089C11.0961 8.54849 11.6976 8.03461 12.4134 7.749Z" fill="#190F6C"/>
</g>
</g>
<defs>
<clipPath id="clip0_1025_1102">
<rect x="0.210449" width="24" height="24" rx="4" fill="white"/>
</clipPath>
</defs>
</svg>
