<svg width="25" height="24" viewBox="0 0 25 24" fill="none" xmlns="http://www.w3.org/2000/svg">
<path d="M2.21045 9C2.21045 7.114 2.21045 6.172 2.79645 5.586C3.38245 5 4.32445 5 6.21045 5H18.2104C20.0964 5 21.0384 5 21.6244 5.586C22.2104 6.172 22.2104 7.114 22.2104 9C22.2104 9.471 22.2104 9.707 22.0644 9.854C21.9174 10 21.6804 10 21.2104 10H3.21045C2.73945 10 2.50345 10 2.35645 9.854C2.21045 9.707 2.21045 9.47 2.21045 9ZM2.21045 18C2.21045 19.886 2.21045 20.828 2.79645 21.414C3.38245 22 4.32445 22 6.21045 22H18.2104C20.0964 22 21.0384 22 21.6244 21.414C22.2104 20.828 22.2104 19.886 22.2104 18V13C22.2104 12.529 22.2104 12.293 22.0644 12.146C21.9174 12 21.6804 12 21.2104 12H3.21045C2.73945 12 2.50345 12 2.35645 12.146C2.21045 12.293 2.21045 12.53 2.21045 13V18Z" fill="#190F6C"/>
<path d="M7.21045 3V6M17.2104 3V6" stroke="#190F6C" stroke-width="2" stroke-linecap="round"/>
</svg>
