<svg width="25" height="24" viewBox="0 0 25 24" fill="none" xmlns="http://www.w3.org/2000/svg">
<path d="M4.21045 20C3.66045 20 3.18978 19.8043 2.79845 19.413C2.40712 19.0217 2.21112 18.5507 2.21045 18V6C2.21045 5.45 2.40645 4.97933 2.79845 4.588C3.19045 4.19667 3.66112 4.00067 4.21045 4H20.2104C20.7604 4 21.2314 4.196 21.6234 4.588C22.0154 4.98 22.2111 5.45067 22.2104 6V18C22.2104 18.55 22.0148 19.021 21.6234 19.413C21.2321 19.805 20.7611 20.0007 20.2104 20H4.21045ZM12.2104 13L20.2104 8V6L12.2104 11L4.21045 6V8L12.2104 13Z" fill="#190F6C"/>
</svg>
