<svg width="25" height="24" viewBox="0 0 25 24" fill="none" xmlns="http://www.w3.org/2000/svg">
<path d="M12.2104 11.5C11.5474 11.5 10.9115 11.2366 10.4427 10.7678C9.97384 10.2989 9.71045 9.66304 9.71045 9C9.71045 8.33696 9.97384 7.70107 10.4427 7.23223C10.9115 6.76339 11.5474 6.5 12.2104 6.5C12.8735 6.5 13.5094 6.76339 13.9782 7.23223C14.4471 7.70107 14.7104 8.33696 14.7104 9C14.7104 9.3283 14.6458 9.65339 14.5201 9.95671C14.3945 10.26 14.2104 10.5356 13.9782 10.7678C13.7461 10.9999 13.4705 11.1841 13.1672 11.3097C12.8638 11.4353 12.5388 11.5 12.2104 11.5ZM12.2104 2C10.3539 2 8.57346 2.7375 7.2607 4.05025C5.94795 5.36301 5.21045 7.14348 5.21045 9C5.21045 14.25 12.2104 22 12.2104 22C12.2104 22 19.2104 14.25 19.2104 9C19.2104 7.14348 18.473 5.36301 17.1602 4.05025C15.8474 2.7375 14.067 2 12.2104 2Z" fill="#190F6C"/>
</svg>
