<svg width="52" height="52" viewBox="0 0 52 52" fill="none" xmlns="http://www.w3.org/2000/svg">
<g clip-path="url(#clip0_1025_1080)">
<path d="M0.0102539 0.000976562H51.2103V51.201H0.0102539V0.000976562Z" fill="#FFC403"/>
<path d="M22.7652 22.5791V28.4234H21.1668V25.1453L20.099 26.7251H19.2624L18.0885 25.1453V28.4234H16.6274V22.5791H18.101L19.7869 24.8706L21.2979 22.5791H22.7652ZM23.2272 23.9028V22.5791H28.6844V23.9028H26.7738V28.4234H25.1441V23.9028H23.2272ZM34.6973 22.5791V28.4234H33.3549L30.6075 25.0829V28.4234H29.1465V22.5791H30.6013L33.23 25.801V22.5791H34.6973Z" fill="black"/>
<path d="M25.6099 34.5304C20.8895 34.5304 16.4376 33.65 13.0784 32.0453C9.56305 30.3657 7.62744 28.0805 7.62744 25.6016C7.62744 23.1228 9.56305 20.8375 13.0784 19.1579C16.4376 17.5532 20.8895 16.6729 25.6099 16.6729C30.3303 16.6729 34.7822 17.5532 38.1414 19.1579C41.6567 20.8375 43.5923 23.1228 43.5923 25.6016C43.5923 28.0805 41.6567 30.3657 38.1414 32.0453C34.7822 33.65 30.3303 34.5304 25.6099 34.5304ZM25.6099 17.9903C21.0768 17.9903 16.831 18.827 13.6466 20.3505C10.6183 21.7991 8.94491 23.666 8.94491 25.6079C8.94491 27.5497 10.612 29.4167 13.6466 30.859C16.831 32.3825 21.083 33.2192 25.6099 33.2192C30.1367 33.2192 34.3888 32.3825 37.5732 30.859C40.6015 29.4167 42.2749 27.5435 42.2749 25.6079C42.2749 23.6723 40.6077 21.7991 37.5732 20.3568C34.3888 18.827 30.143 17.9903 25.6099 17.9903Z" fill="black"/>
</g>
<defs>
<clipPath id="clip0_1025_1080">
<rect width="51.2" height="51.2" fill="white" transform="translate(0.0102539)"/>
</clipPath>
</defs>
</svg>
