<svg width="200" height="148" viewBox="0 0 200 148" fill="none" xmlns="http://www.w3.org/2000/svg">
<g id="Pattern">
<path id="Shape" d="M164.689 139.841L9.68571 61.8973L39.6681 3.57628L164.689 139.841Z" fill="#84C4FF"/>
<g id="Dots">
<ellipse id="Ellipse" cx="1.29405" cy="1.27333" rx="1.29405" ry="1.27333" transform="matrix(-0.893581 -0.448903 0.457212 -0.889358 173.886 144.386)" fill="#222222"/>
<ellipse id="Ellipse_2" cx="1.29405" cy="1.27333" rx="1.29405" ry="1.27333" transform="matrix(-0.893581 -0.448903 0.457212 -0.889358 180.29 131.929)" fill="#222222"/>
<ellipse id="Ellipse_3" cx="1.29405" cy="1.27333" rx="1.29405" ry="1.27333" transform="matrix(-0.893581 -0.448903 0.457212 -0.889358 186.694 119.472)" fill="#222222"/>
<ellipse id="Ellipse_4" cx="1.29405" cy="1.27333" rx="1.29405" ry="1.27333" transform="matrix(-0.893581 -0.448903 0.457212 -0.889358 193.098 107.015)" fill="#222222"/>
<ellipse id="Ellipse_5" cx="1.29405" cy="1.27333" rx="1.29405" ry="1.27333" transform="matrix(-0.893581 -0.448903 0.457212 -0.889358 199.502 94.5581)" fill="#222222"/>
<ellipse id="Ellipse_6" cx="1.29405" cy="1.27333" rx="1.29405" ry="1.27333" transform="matrix(-0.893581 -0.448903 0.457212 -0.889358 171.307 135.253)" fill="#222222"/>
<ellipse id="Ellipse_7" cx="1.29405" cy="1.27333" rx="1.29405" ry="1.27333" transform="matrix(-0.893581 -0.448903 0.457212 -0.889358 177.711 122.796)" fill="#222222"/>
<ellipse id="Ellipse_8" cx="1.29405" cy="1.27333" rx="1.29405" ry="1.27333" transform="matrix(-0.893581 -0.448903 0.457212 -0.889358 184.115 110.339)" fill="#222222"/>
<ellipse id="Ellipse_9" cx="1.29405" cy="1.27333" rx="1.29405" ry="1.27333" transform="matrix(-0.893581 -0.448903 0.457212 -0.889358 190.519 97.8823)" fill="#222222"/>
<ellipse id="Ellipse_10" cx="1.29405" cy="1.27333" rx="1.29405" ry="1.27333" transform="matrix(-0.893581 -0.448903 0.457212 -0.889358 196.923 85.4253)" fill="#222222"/>
<ellipse id="Ellipse_11" cx="1.29405" cy="1.27333" rx="1.29405" ry="1.27333" transform="matrix(-0.893581 -0.448903 0.457212 -0.889358 159.743 129.444)" fill="#222222"/>
<ellipse id="Ellipse_12" cx="1.29405" cy="1.27333" rx="1.29405" ry="1.27333" transform="matrix(-0.893581 -0.448903 0.457212 -0.889358 166.147 116.987)" fill="#222222"/>
<ellipse id="Ellipse_13" cx="1.29405" cy="1.27333" rx="1.29405" ry="1.27333" transform="matrix(-0.893581 -0.448903 0.457212 -0.889358 172.551 104.53)" fill="#222222"/>
<ellipse id="Ellipse_14" cx="1.29405" cy="1.27333" rx="1.29405" ry="1.27333" transform="matrix(-0.893581 -0.448903 0.457212 -0.889358 178.955 92.0732)" fill="#222222"/>
<ellipse id="Ellipse_15" cx="1.29405" cy="1.27333" rx="1.29405" ry="1.27333" transform="matrix(-0.893581 -0.448903 0.457212 -0.889358 185.359 79.6162)" fill="#222222"/>
<ellipse id="Ellipse_16" cx="1.29405" cy="1.27333" rx="1.29405" ry="1.27333" transform="matrix(-0.893581 -0.448903 0.457212 -0.889358 148.18 123.635)" fill="#222222"/>
<ellipse id="Ellipse_17" cx="1.29405" cy="1.27333" rx="1.29405" ry="1.27333" transform="matrix(-0.893581 -0.448903 0.457212 -0.889358 154.584 111.178)" fill="#222222"/>
<ellipse id="Ellipse_18" cx="1.29405" cy="1.27333" rx="1.29405" ry="1.27333" transform="matrix(-0.893581 -0.448903 0.457212 -0.889358 160.988 98.7212)" fill="#222222"/>
<ellipse id="Ellipse_19" cx="1.29405" cy="1.27333" rx="1.29405" ry="1.27333" transform="matrix(-0.893581 -0.448903 0.457212 -0.889358 167.392 86.2646)" fill="#222222"/>
<ellipse id="Ellipse_20" cx="1.29405" cy="1.27333" rx="1.29405" ry="1.27333" transform="matrix(-0.893581 -0.448903 0.457212 -0.889358 173.796 73.8076)" fill="#222222"/>
<ellipse id="Ellipse_21" cx="1.29405" cy="1.27333" rx="1.29405" ry="1.27333" transform="matrix(-0.893581 -0.448903 0.457212 -0.889358 136.616 117.826)" fill="#222222"/>
<ellipse id="Ellipse_22" cx="1.29405" cy="1.27333" rx="1.29405" ry="1.27333" transform="matrix(-0.893581 -0.448903 0.457212 -0.889358 143.02 105.369)" fill="#222222"/>
<ellipse id="Ellipse_23" cx="1.29405" cy="1.27333" rx="1.29405" ry="1.27333" transform="matrix(-0.893581 -0.448903 0.457212 -0.889358 149.424 92.9121)" fill="#222222"/>
<ellipse id="Ellipse_24" cx="1.29405" cy="1.27333" rx="1.29405" ry="1.27333" transform="matrix(-0.893581 -0.448903 0.457212 -0.889358 155.828 80.4551)" fill="#222222"/>
<ellipse id="Ellipse_25" cx="1.29405" cy="1.27333" rx="1.29405" ry="1.27333" transform="matrix(-0.893581 -0.448903 0.457212 -0.889358 162.232 67.998)" fill="#222222"/>
<ellipse id="Ellipse_26" cx="1.29405" cy="1.27333" rx="1.29405" ry="1.27333" transform="matrix(-0.893581 -0.448903 0.457212 -0.889358 125.053 112.017)" fill="#222222"/>
<ellipse id="Ellipse_27" cx="1.29405" cy="1.27333" rx="1.29405" ry="1.27333" transform="matrix(-0.893581 -0.448903 0.457212 -0.889358 131.457 99.5601)" fill="#222222"/>
<ellipse id="Ellipse_28" cx="1.29405" cy="1.27333" rx="1.29405" ry="1.27333" transform="matrix(-0.893581 -0.448903 0.457212 -0.889358 137.861 87.103)" fill="#222222"/>
<ellipse id="Ellipse_29" cx="1.29405" cy="1.27333" rx="1.29405" ry="1.27333" transform="matrix(-0.893581 -0.448903 0.457212 -0.889358 144.265 74.646)" fill="#222222"/>
<ellipse id="Ellipse_30" cx="1.29405" cy="1.27333" rx="1.29405" ry="1.27333" transform="matrix(-0.893581 -0.448903 0.457212 -0.889358 150.669 62.189)" fill="#222222"/>
<ellipse id="Ellipse_31" cx="1.29405" cy="1.27333" rx="1.29405" ry="1.27333" transform="matrix(-0.893581 -0.448903 0.457212 -0.889358 113.49 106.208)" fill="#222222"/>
<ellipse id="Ellipse_32" cx="1.29405" cy="1.27333" rx="1.29405" ry="1.27333" transform="matrix(-0.893581 -0.448903 0.457212 -0.889358 119.894 93.751)" fill="#222222"/>
<ellipse id="Ellipse_33" cx="1.29405" cy="1.27333" rx="1.29405" ry="1.27333" transform="matrix(-0.893581 -0.448903 0.457212 -0.889358 126.297 81.2939)" fill="#222222"/>
<ellipse id="Ellipse_34" cx="1.29405" cy="1.27333" rx="1.29405" ry="1.27333" transform="matrix(-0.893581 -0.448903 0.457212 -0.889358 132.702 68.8369)" fill="#222222"/>
<ellipse id="Ellipse_35" cx="1.29405" cy="1.27333" rx="1.29405" ry="1.27333" transform="matrix(-0.893581 -0.448903 0.457212 -0.889358 139.105 56.3804)" fill="#222222"/>
<ellipse id="Ellipse_36" cx="1.29405" cy="1.27333" rx="1.29405" ry="1.27333" transform="matrix(-0.893581 -0.448903 0.457212 -0.889358 101.926 100.399)" fill="#222222"/>
<ellipse id="Ellipse_37" cx="1.29405" cy="1.27333" rx="1.29405" ry="1.27333" transform="matrix(-0.893581 -0.448903 0.457212 -0.889358 108.33 87.9414)" fill="#222222"/>
<ellipse id="Ellipse_38" cx="1.29405" cy="1.27333" rx="1.29405" ry="1.27333" transform="matrix(-0.893581 -0.448903 0.457212 -0.889358 114.734 75.4854)" fill="#222222"/>
<ellipse id="Ellipse_39" cx="1.29405" cy="1.27333" rx="1.29405" ry="1.27333" transform="matrix(-0.893581 -0.448903 0.457212 -0.889358 121.138 63.0283)" fill="#222222"/>
<ellipse id="Ellipse_40" cx="1.29405" cy="1.27333" rx="1.29405" ry="1.27333" transform="matrix(-0.893581 -0.448903 0.457212 -0.889358 127.542 50.5708)" fill="#222222"/>
<ellipse id="Ellipse_41" cx="1.29405" cy="1.27333" rx="1.29405" ry="1.27333" transform="matrix(-0.893581 -0.448903 0.457212 -0.889358 90.3628 94.5894)" fill="#222222"/>
<ellipse id="Ellipse_42" cx="1.29405" cy="1.27333" rx="1.29405" ry="1.27333" transform="matrix(-0.893581 -0.448903 0.457212 -0.889358 96.7667 82.1328)" fill="#222222"/>
<ellipse id="Ellipse_43" cx="1.29405" cy="1.27333" rx="1.29405" ry="1.27333" transform="matrix(-0.893581 -0.448903 0.457212 -0.889358 103.171 69.6758)" fill="#222222"/>
<ellipse id="Ellipse_44" cx="1.29405" cy="1.27333" rx="1.29405" ry="1.27333" transform="matrix(-0.893581 -0.448903 0.457212 -0.889358 109.575 57.2188)" fill="#222222"/>
<ellipse id="Ellipse_45" cx="1.29405" cy="1.27333" rx="1.29405" ry="1.27333" transform="matrix(-0.893581 -0.448903 0.457212 -0.889358 115.979 44.7622)" fill="#222222"/>
<ellipse id="Ellipse_46" cx="1.29405" cy="1.27333" rx="1.29405" ry="1.27333" transform="matrix(-0.893581 -0.448903 0.457212 -0.889358 78.7992 88.7808)" fill="#222222"/>
<ellipse id="Ellipse_47" cx="1.29405" cy="1.27333" rx="1.29405" ry="1.27333" transform="matrix(-0.893581 -0.448903 0.457212 -0.889358 85.2033 76.3237)" fill="#222222"/>
<ellipse id="Ellipse_48" cx="1.29405" cy="1.27333" rx="1.29405" ry="1.27333" transform="matrix(-0.893581 -0.448903 0.457212 -0.889358 91.6073 63.8667)" fill="#222222"/>
<ellipse id="Ellipse_49" cx="1.29405" cy="1.27333" rx="1.29405" ry="1.27333" transform="matrix(-0.893581 -0.448903 0.457212 -0.889358 98.0112 51.4102)" fill="#222222"/>
<ellipse id="Ellipse_50" cx="1.29405" cy="1.27333" rx="1.29405" ry="1.27333" transform="matrix(-0.893581 -0.448903 0.457212 -0.889358 104.415 38.9531)" fill="#222222"/>
<ellipse id="Ellipse_51" cx="1.29405" cy="1.27333" rx="1.29405" ry="1.27333" transform="matrix(-0.893581 -0.448903 0.457212 -0.889358 67.2358 82.9717)" fill="#222222"/>
<ellipse id="Ellipse_52" cx="1.29405" cy="1.27333" rx="1.29405" ry="1.27333" transform="matrix(-0.893581 -0.448903 0.457212 -0.889358 73.6401 70.5146)" fill="#222222"/>
<ellipse id="Ellipse_53" cx="1.29405" cy="1.27333" rx="1.29405" ry="1.27333" transform="matrix(-0.893581 -0.448903 0.457212 -0.889358 80.0438 58.0581)" fill="#222222"/>
<ellipse id="Ellipse_54" cx="1.29405" cy="1.27333" rx="1.29405" ry="1.27333" transform="matrix(-0.893581 -0.448903 0.457212 -0.889358 86.4481 45.6011)" fill="#222222"/>
<ellipse id="Ellipse_55" cx="1.29405" cy="1.27333" rx="1.29405" ry="1.27333" transform="matrix(-0.893581 -0.448903 0.457212 -0.889358 92.8518 33.144)" fill="#222222"/>
<ellipse id="Ellipse_56" cx="1.29405" cy="1.27333" rx="1.29405" ry="1.27333" transform="matrix(-0.893581 -0.448903 0.457212 -0.889358 55.6726 77.1621)" fill="#222222"/>
<ellipse id="Ellipse_57" cx="1.29405" cy="1.27333" rx="1.29405" ry="1.27333" transform="matrix(-0.893581 -0.448903 0.457212 -0.889358 62.0765 64.7056)" fill="#222222"/>
<ellipse id="Ellipse_58" cx="1.29405" cy="1.27333" rx="1.29405" ry="1.27333" transform="matrix(-0.893581 -0.448903 0.457212 -0.889358 68.4806 52.2485)" fill="#222222"/>
<ellipse id="Ellipse_59" cx="1.29405" cy="1.27333" rx="1.29405" ry="1.27333" transform="matrix(-0.893581 -0.448903 0.457212 -0.889358 74.8846 39.7915)" fill="#222222"/>
<ellipse id="Ellipse_60" cx="1.29405" cy="1.27333" rx="1.29405" ry="1.27333" transform="matrix(-0.893581 -0.448903 0.457212 -0.889358 81.2887 27.3345)" fill="#222222"/>
<ellipse id="Ellipse_61" cx="1.29405" cy="1.27333" rx="1.29405" ry="1.27333" transform="matrix(-0.893581 -0.448903 0.457212 -0.889358 44.1091 71.3535)" fill="#222222"/>
<ellipse id="Ellipse_62" cx="1.29405" cy="1.27333" rx="1.29405" ry="1.27333" transform="matrix(-0.893581 -0.448903 0.457212 -0.889358 50.5131 58.8965)" fill="#222222"/>
<ellipse id="Ellipse_63" cx="1.29405" cy="1.27333" rx="1.29405" ry="1.27333" transform="matrix(-0.893581 -0.448903 0.457212 -0.889358 56.9171 46.4395)" fill="#222222"/>
<ellipse id="Ellipse_64" cx="1.29405" cy="1.27333" rx="1.29405" ry="1.27333" transform="matrix(-0.893581 -0.448903 0.457212 -0.889358 63.3211 33.9829)" fill="#222222"/>
<ellipse id="Ellipse_65" cx="1.29405" cy="1.27333" rx="1.29405" ry="1.27333" transform="matrix(-0.893581 -0.448903 0.457212 -0.889358 69.7251 21.5259)" fill="#222222"/>
<ellipse id="Ellipse_66" cx="1.29405" cy="1.27333" rx="1.29405" ry="1.27333" transform="matrix(-0.893581 -0.448903 0.457212 -0.889358 32.5456 65.5444)" fill="#222222"/>
<ellipse id="Ellipse_67" cx="1.29405" cy="1.27333" rx="1.29405" ry="1.27333" transform="matrix(-0.893581 -0.448903 0.457212 -0.889358 38.9497 53.0874)" fill="#222222"/>
<ellipse id="Ellipse_68" cx="1.29405" cy="1.27333" rx="1.29405" ry="1.27333" transform="matrix(-0.893581 -0.448903 0.457212 -0.889358 45.3536 40.6309)" fill="#222222"/>
<ellipse id="Ellipse_69" cx="1.29405" cy="1.27333" rx="1.29405" ry="1.27333" transform="matrix(-0.893581 -0.448903 0.457212 -0.889358 51.7577 28.1738)" fill="#222222"/>
<ellipse id="Ellipse_70" cx="1.29405" cy="1.27333" rx="1.29405" ry="1.27333" transform="matrix(-0.893581 -0.448903 0.457212 -0.889358 58.1617 15.7168)" fill="#222222"/>
<ellipse id="Ellipse_71" cx="1.29405" cy="1.27333" rx="1.29405" ry="1.27333" transform="matrix(-0.893581 -0.448903 0.457212 -0.889358 20.9824 59.7358)" fill="#222222"/>
<ellipse id="Ellipse_72" cx="1.29405" cy="1.27333" rx="1.29405" ry="1.27333" transform="matrix(-0.893581 -0.448903 0.457212 -0.889358 27.3864 47.2788)" fill="#222222"/>
<ellipse id="Ellipse_73" cx="1.29405" cy="1.27333" rx="1.29405" ry="1.27333" transform="matrix(-0.893581 -0.448903 0.457212 -0.889358 33.7904 34.8218)" fill="#222222"/>
<ellipse id="Ellipse_74" cx="1.29405" cy="1.27333" rx="1.29405" ry="1.27333" transform="matrix(-0.893581 -0.448903 0.457212 -0.889358 40.1944 22.3652)" fill="#222222"/>
<ellipse id="Ellipse_75" cx="1.29405" cy="1.27333" rx="1.29405" ry="1.27333" transform="matrix(-0.893581 -0.448903 0.457212 -0.889358 46.5984 9.9082)" fill="#222222"/>
<ellipse id="Ellipse_76" cx="1.29405" cy="1.27333" rx="1.29405" ry="1.27333" transform="matrix(-0.893581 -0.448903 0.457212 -0.889358 162.323 138.577)" fill="#222222"/>
<ellipse id="Ellipse_77" cx="1.29405" cy="1.27333" rx="1.29405" ry="1.27333" transform="matrix(-0.893581 -0.448903 0.457212 -0.889358 168.727 126.12)" fill="#222222"/>
<ellipse id="Ellipse_78" cx="1.29405" cy="1.27333" rx="1.29405" ry="1.27333" transform="matrix(-0.893581 -0.448903 0.457212 -0.889358 175.131 113.663)" fill="#222222"/>
<ellipse id="Ellipse_79" cx="1.29405" cy="1.27333" rx="1.29405" ry="1.27333" transform="matrix(-0.893581 -0.448903 0.457212 -0.889358 181.535 101.206)" fill="#222222"/>
<ellipse id="Ellipse_80" cx="1.29405" cy="1.27333" rx="1.29405" ry="1.27333" transform="matrix(-0.893581 -0.448903 0.457212 -0.889358 187.939 88.7495)" fill="#222222"/>
<ellipse id="Ellipse_81" cx="1.29405" cy="1.27333" rx="1.29405" ry="1.27333" transform="matrix(-0.893581 -0.448903 0.457212 -0.889358 150.76 132.768)" fill="#222222"/>
<ellipse id="Ellipse_82" cx="1.29405" cy="1.27333" rx="1.29405" ry="1.27333" transform="matrix(-0.893581 -0.448903 0.457212 -0.889358 157.164 120.311)" fill="#222222"/>
<ellipse id="Ellipse_83" cx="1.29405" cy="1.27333" rx="1.29405" ry="1.27333" transform="matrix(-0.893581 -0.448903 0.457212 -0.889358 163.568 107.854)" fill="#222222"/>
<ellipse id="Ellipse_84" cx="1.29405" cy="1.27333" rx="1.29405" ry="1.27333" transform="matrix(-0.893581 -0.448903 0.457212 -0.889358 169.972 95.3975)" fill="#222222"/>
<ellipse id="Ellipse_85" cx="1.29405" cy="1.27333" rx="1.29405" ry="1.27333" transform="matrix(-0.893581 -0.448903 0.457212 -0.889358 176.376 82.9404)" fill="#222222"/>
<ellipse id="Ellipse_86" cx="1.29405" cy="1.27333" rx="1.29405" ry="1.27333" transform="matrix(-0.893581 -0.448903 0.457212 -0.889358 139.196 126.959)" fill="#222222"/>
<ellipse id="Ellipse_87" cx="1.29405" cy="1.27333" rx="1.29405" ry="1.27333" transform="matrix(-0.893581 -0.448903 0.457212 -0.889358 145.6 114.501)" fill="#222222"/>
<ellipse id="Ellipse_88" cx="1.29405" cy="1.27333" rx="1.29405" ry="1.27333" transform="matrix(-0.893581 -0.448903 0.457212 -0.889358 152.004 102.045)" fill="#222222"/>
<ellipse id="Ellipse_89" cx="1.29405" cy="1.27333" rx="1.29405" ry="1.27333" transform="matrix(-0.893581 -0.448903 0.457212 -0.889358 158.408 89.5879)" fill="#222222"/>
<ellipse id="Ellipse_90" cx="1.29405" cy="1.27333" rx="1.29405" ry="1.27333" transform="matrix(-0.893581 -0.448903 0.457212 -0.889358 164.812 77.1309)" fill="#222222"/>
<ellipse id="Ellipse_91" cx="1.29405" cy="1.27333" rx="1.29405" ry="1.27333" transform="matrix(-0.893581 -0.448903 0.457212 -0.889358 127.633 121.149)" fill="#222222"/>
<ellipse id="Ellipse_92" cx="1.29405" cy="1.27333" rx="1.29405" ry="1.27333" transform="matrix(-0.893581 -0.448903 0.457212 -0.889358 134.037 108.693)" fill="#222222"/>
<ellipse id="Ellipse_93" cx="1.29405" cy="1.27333" rx="1.29405" ry="1.27333" transform="matrix(-0.893581 -0.448903 0.457212 -0.889358 140.441 96.2358)" fill="#222222"/>
<ellipse id="Ellipse_94" cx="1.29405" cy="1.27333" rx="1.29405" ry="1.27333" transform="matrix(-0.893581 -0.448903 0.457212 -0.889358 146.845 83.7788)" fill="#222222"/>
<ellipse id="Ellipse_95" cx="1.29405" cy="1.27333" rx="1.29405" ry="1.27333" transform="matrix(-0.893581 -0.448903 0.457212 -0.889358 153.249 71.3223)" fill="#222222"/>
<ellipse id="Ellipse_96" cx="1.29405" cy="1.27333" rx="1.29405" ry="1.27333" transform="matrix(-0.893581 -0.448903 0.457212 -0.889358 116.069 115.341)" fill="#222222"/>
<ellipse id="Ellipse_97" cx="1.29405" cy="1.27333" rx="1.29405" ry="1.27333" transform="matrix(-0.893581 -0.448903 0.457212 -0.889358 122.473 102.884)" fill="#222222"/>
<ellipse id="Ellipse_98" cx="1.29405" cy="1.27333" rx="1.29405" ry="1.27333" transform="matrix(-0.893581 -0.448903 0.457212 -0.889358 128.877 90.4268)" fill="#222222"/>
<ellipse id="Ellipse_99" cx="1.29405" cy="1.27333" rx="1.29405" ry="1.27333" transform="matrix(-0.893581 -0.448903 0.457212 -0.889358 135.281 77.9702)" fill="#222222"/>
<ellipse id="Ellipse_100" cx="1.29405" cy="1.27333" rx="1.29405" ry="1.27333" transform="matrix(-0.893581 -0.448903 0.457212 -0.889358 141.685 65.5132)" fill="#222222"/>
<ellipse id="Ellipse_101" cx="1.29405" cy="1.27333" rx="1.29405" ry="1.27333" transform="matrix(-0.893581 -0.448903 0.457212 -0.889358 104.506 109.532)" fill="#222222"/>
<ellipse id="Ellipse_102" cx="1.29405" cy="1.27333" rx="1.29405" ry="1.27333" transform="matrix(-0.893581 -0.448903 0.457212 -0.889358 110.91 97.0752)" fill="#222222"/>
<ellipse id="Ellipse_103" cx="1.29405" cy="1.27333" rx="1.29405" ry="1.27333" transform="matrix(-0.893581 -0.448903 0.457212 -0.889358 117.314 84.6182)" fill="#222222"/>
<ellipse id="Ellipse_104" cx="1.29405" cy="1.27333" rx="1.29405" ry="1.27333" transform="matrix(-0.893581 -0.448903 0.457212 -0.889358 123.718 72.1611)" fill="#222222"/>
<ellipse id="Ellipse_105" cx="1.29405" cy="1.27333" rx="1.29405" ry="1.27333" transform="matrix(-0.893581 -0.448903 0.457212 -0.889358 130.122 59.7041)" fill="#222222"/>
<ellipse id="Ellipse_106" cx="1.29405" cy="1.27333" rx="1.29405" ry="1.27333" transform="matrix(-0.893581 -0.448903 0.457212 -0.889358 92.9424 103.723)" fill="#222222"/>
<ellipse id="Ellipse_107" cx="1.29405" cy="1.27333" rx="1.29405" ry="1.27333" transform="matrix(-0.893581 -0.448903 0.457212 -0.889358 99.3465 91.2656)" fill="#222222"/>
<ellipse id="Ellipse_108" cx="1.29405" cy="1.27333" rx="1.29405" ry="1.27333" transform="matrix(-0.893581 -0.448903 0.457212 -0.889358 105.75 78.8086)" fill="#222222"/>
<ellipse id="Ellipse_109" cx="1.29405" cy="1.27333" rx="1.29405" ry="1.27333" transform="matrix(-0.893581 -0.448903 0.457212 -0.889358 112.155 66.3516)" fill="#222222"/>
<ellipse id="Ellipse_110" cx="1.29405" cy="1.27333" rx="1.29405" ry="1.27333" transform="matrix(-0.893581 -0.448903 0.457212 -0.889358 118.558 53.895)" fill="#222222"/>
<ellipse id="Ellipse_111" cx="1.29405" cy="1.27333" rx="1.29405" ry="1.27333" transform="matrix(-0.893581 -0.448903 0.457212 -0.889358 81.379 97.9136)" fill="#222222"/>
<ellipse id="Ellipse_112" cx="1.29405" cy="1.27333" rx="1.29405" ry="1.27333" transform="matrix(-0.893581 -0.448903 0.457212 -0.889358 87.783 85.4565)" fill="#222222"/>
<ellipse id="Ellipse_113" cx="1.29405" cy="1.27333" rx="1.29405" ry="1.27333" transform="matrix(-0.893581 -0.448903 0.457212 -0.889358 94.1871 72.9995)" fill="#222222"/>
<ellipse id="Ellipse_114" cx="1.29405" cy="1.27333" rx="1.29405" ry="1.27333" transform="matrix(-0.893581 -0.448903 0.457212 -0.889358 100.591 60.543)" fill="#222222"/>
<ellipse id="Ellipse_115" cx="1.29405" cy="1.27333" rx="1.29405" ry="1.27333" transform="matrix(-0.893581 -0.448903 0.457212 -0.889358 106.995 48.0859)" fill="#222222"/>
<ellipse id="Ellipse_116" cx="1.29405" cy="1.27333" rx="1.29405" ry="1.27333" transform="matrix(-0.893581 -0.448903 0.457212 -0.889358 69.8156 92.1045)" fill="#222222"/>
<ellipse id="Ellipse_117" cx="1.29405" cy="1.27333" rx="1.29405" ry="1.27333" transform="matrix(-0.893581 -0.448903 0.457212 -0.889358 76.2198 79.6475)" fill="#222222"/>
<ellipse id="Ellipse_118" cx="1.29405" cy="1.27333" rx="1.29405" ry="1.27333" transform="matrix(-0.893581 -0.448903 0.457212 -0.889358 82.6235 67.1909)" fill="#222222"/>
<ellipse id="Ellipse_119" cx="1.29405" cy="1.27333" rx="1.29405" ry="1.27333" transform="matrix(-0.893581 -0.448903 0.457212 -0.889358 89.0278 54.7339)" fill="#222222"/>
<ellipse id="Ellipse_120" cx="1.29405" cy="1.27333" rx="1.29405" ry="1.27333" transform="matrix(-0.893581 -0.448903 0.457212 -0.889358 95.4316 42.2769)" fill="#222222"/>
<ellipse id="Ellipse_121" cx="1.29405" cy="1.27333" rx="1.29405" ry="1.27333" transform="matrix(-0.893581 -0.448903 0.457212 -0.889358 58.2523 86.2959)" fill="#222222"/>
<ellipse id="Ellipse_122" cx="1.29405" cy="1.27333" rx="1.29405" ry="1.27333" transform="matrix(-0.893581 -0.448903 0.457212 -0.889358 64.6563 73.8389)" fill="#222222"/>
<ellipse id="Ellipse_123" cx="1.29405" cy="1.27333" rx="1.29405" ry="1.27333" transform="matrix(-0.893581 -0.448903 0.457212 -0.889358 71.0603 61.3818)" fill="#222222"/>
<ellipse id="Ellipse_124" cx="1.29405" cy="1.27333" rx="1.29405" ry="1.27333" transform="matrix(-0.893581 -0.448903 0.457212 -0.889358 77.4643 48.9253)" fill="#222222"/>
<ellipse id="Ellipse_125" cx="1.29405" cy="1.27333" rx="1.29405" ry="1.27333" transform="matrix(-0.893581 -0.448903 0.457212 -0.889358 83.8683 36.4683)" fill="#222222"/>
<ellipse id="Ellipse_126" cx="1.29405" cy="1.27333" rx="1.29405" ry="1.27333" transform="matrix(-0.893581 -0.448903 0.457212 -0.889358 46.6888 80.4863)" fill="#222222"/>
<ellipse id="Ellipse_127" cx="1.29405" cy="1.27333" rx="1.29405" ry="1.27333" transform="matrix(-0.893581 -0.448903 0.457212 -0.889358 53.0929 68.0293)" fill="#222222"/>
<ellipse id="Ellipse_128" cx="1.29405" cy="1.27333" rx="1.29405" ry="1.27333" transform="matrix(-0.893581 -0.448903 0.457212 -0.889358 59.4968 55.5728)" fill="#222222"/>
<ellipse id="Ellipse_129" cx="1.29405" cy="1.27333" rx="1.29405" ry="1.27333" transform="matrix(-0.893581 -0.448903 0.457212 -0.889358 65.9008 43.1157)" fill="#222222"/>
<ellipse id="Ellipse_130" cx="1.29405" cy="1.27333" rx="1.29405" ry="1.27333" transform="matrix(-0.893581 -0.448903 0.457212 -0.889358 72.3049 30.6587)" fill="#222222"/>
<ellipse id="Ellipse_131" cx="1.29405" cy="1.27333" rx="1.29405" ry="1.27333" transform="matrix(-0.893581 -0.448903 0.457212 -0.889358 35.1253 74.6777)" fill="#222222"/>
<ellipse id="Ellipse_132" cx="1.29405" cy="1.27333" rx="1.29405" ry="1.27333" transform="matrix(-0.893581 -0.448903 0.457212 -0.889358 41.5293 62.2207)" fill="#222222"/>
<ellipse id="Ellipse_133" cx="1.29405" cy="1.27333" rx="1.29405" ry="1.27333" transform="matrix(-0.893581 -0.448903 0.457212 -0.889358 47.9333 49.7637)" fill="#222222"/>
<ellipse id="Ellipse_134" cx="1.29405" cy="1.27333" rx="1.29405" ry="1.27333" transform="matrix(-0.893581 -0.448903 0.457212 -0.889358 54.3374 37.3066)" fill="#222222"/>
<ellipse id="Ellipse_135" cx="1.29405" cy="1.27333" rx="1.29405" ry="1.27333" transform="matrix(-0.893581 -0.448903 0.457212 -0.889358 60.7414 24.8496)" fill="#222222"/>
<ellipse id="Ellipse_136" cx="1.29405" cy="1.27333" rx="1.29405" ry="1.27333" transform="matrix(-0.893581 -0.448903 0.457212 -0.889358 23.5618 68.8687)" fill="#222222"/>
<ellipse id="Ellipse_137" cx="1.29405" cy="1.27333" rx="1.29405" ry="1.27333" transform="matrix(-0.893581 -0.448903 0.457212 -0.889358 29.9662 56.4116)" fill="#222222"/>
<ellipse id="Ellipse_138" cx="1.29405" cy="1.27333" rx="1.29405" ry="1.27333" transform="matrix(-0.893581 -0.448903 0.457212 -0.889358 36.3699 43.9546)" fill="#222222"/>
<ellipse id="Ellipse_139" cx="1.29405" cy="1.27333" rx="1.29405" ry="1.27333" transform="matrix(-0.893581 -0.448903 0.457212 -0.889358 42.7741 31.498)" fill="#222222"/>
<ellipse id="Ellipse_140" cx="1.29405" cy="1.27333" rx="1.29405" ry="1.27333" transform="matrix(-0.893581 -0.448903 0.457212 -0.889358 49.1779 19.041)" fill="#222222"/>
<ellipse id="Ellipse_141" cx="1.29405" cy="1.27333" rx="1.29405" ry="1.27333" transform="matrix(-0.893581 -0.448903 0.457212 -0.889358 11.9987 63.0596)" fill="#222222"/>
<ellipse id="Ellipse_142" cx="1.29405" cy="1.27333" rx="1.29405" ry="1.27333" transform="matrix(-0.893581 -0.448903 0.457212 -0.889358 18.4027 50.6021)" fill="#222222"/>
<ellipse id="Ellipse_143" cx="1.29405" cy="1.27333" rx="1.29405" ry="1.27333" transform="matrix(-0.893581 -0.448903 0.457212 -0.889358 24.8066 38.146)" fill="#222222"/>
<ellipse id="Ellipse_144" cx="1.29405" cy="1.27333" rx="1.29405" ry="1.27333" transform="matrix(-0.893581 -0.448903 0.457212 -0.889358 31.2107 25.6885)" fill="#222222"/>
<ellipse id="Ellipse_145" cx="1.29405" cy="1.27333" rx="1.29405" ry="1.27333" transform="matrix(-0.893581 -0.448903 0.457212 -0.889358 37.6147 13.2314)" fill="#222222"/>
</g>
</g>
</svg>
