<svg width="221" height="151" viewBox="0 0 221 151" fill="none" xmlns="http://www.w3.org/2000/svg">
<g id="Pattern">
<path id="Shape" d="M48.2618 7.73096L211.361 85.0954L181.669 147.757L48.2618 7.73096Z" fill="#FFA3A3"/>
<g id="Dots">
<circle id="Ellipse" cx="39.226" cy="5.01886" r="1.34641" transform="rotate(25.354 39.226 5.01886)" fill="#222222"/>
<circle id="Ellipse_2" cx="32.884" cy="18.4031" r="1.34641" transform="rotate(25.354 32.884 18.4031)" fill="#222222"/>
<circle id="Ellipse_3" cx="26.5419" cy="31.7869" r="1.34641" transform="rotate(25.354 26.5419 31.7869)" fill="#222222"/>
<circle id="Ellipse_4" cx="20.2" cy="45.1707" r="1.34641" transform="rotate(25.354 20.2 45.1707)" fill="#222222"/>
<circle id="Ellipse_5" cx="13.858" cy="58.555" r="1.34641" transform="rotate(25.354 13.858 58.555)" fill="#222222"/>
<circle id="Ellipse_6" cx="42.1386" cy="14.5936" r="1.34641" transform="rotate(25.354 42.1386 14.5936)" fill="#222222"/>
<circle id="Ellipse_7" cx="35.7966" cy="27.9774" r="1.34641" transform="rotate(25.354 35.7966 27.9774)" fill="#222222"/>
<circle id="Ellipse_8" cx="29.4546" cy="41.3616" r="1.34641" transform="rotate(25.354 29.4546 41.3616)" fill="#222222"/>
<circle id="Ellipse_9" cx="23.1125" cy="54.7459" r="1.34641" transform="rotate(25.354 23.1125 54.7459)" fill="#222222"/>
<circle id="Ellipse_10" cx="16.7706" cy="68.1297" r="1.34641" transform="rotate(25.354 16.7706 68.1297)" fill="#222222"/>
<circle id="Ellipse_11" cx="54.3059" cy="20.3592" r="1.34641" transform="rotate(25.354 54.3059 20.3592)" fill="#222222"/>
<circle id="Ellipse_12" cx="47.9639" cy="33.743" r="1.34641" transform="rotate(25.354 47.9639 33.743)" fill="#222222"/>
<circle id="Ellipse_13" cx="41.6219" cy="47.1273" r="1.34641" transform="rotate(25.354 41.6219 47.1273)" fill="#222222"/>
<circle id="Ellipse_14" cx="35.2798" cy="60.511" r="1.34641" transform="rotate(25.354 35.2798 60.511)" fill="#222222"/>
<circle id="Ellipse_15" cx="28.9378" cy="73.8948" r="1.34641" transform="rotate(25.354 28.9378 73.8948)" fill="#222222"/>
<circle id="Ellipse_16" cx="66.4731" cy="26.1248" r="1.34641" transform="rotate(25.354 66.4731 26.1248)" fill="#222222"/>
<circle id="Ellipse_17" cx="60.1311" cy="39.5086" r="1.34641" transform="rotate(25.354 60.1311 39.5086)" fill="#222222"/>
<circle id="Ellipse_18" cx="53.7891" cy="52.8924" r="1.34641" transform="rotate(25.354 53.7891 52.8924)" fill="#222222"/>
<circle id="Ellipse_19" cx="47.4471" cy="66.2767" r="1.34641" transform="rotate(25.354 47.4471 66.2767)" fill="#222222"/>
<circle id="Ellipse_20" cx="41.1051" cy="79.6605" r="1.34641" transform="rotate(25.354 41.1051 79.6605)" fill="#222222"/>
<circle id="Ellipse_21" cx="78.6404" cy="31.89" r="1.34641" transform="rotate(25.354 78.6404 31.89)" fill="#222222"/>
<circle id="Ellipse_22" cx="72.2984" cy="45.2742" r="1.34641" transform="rotate(25.354 72.2984 45.2742)" fill="#222222"/>
<circle id="Ellipse_23" cx="65.9564" cy="58.658" r="1.34641" transform="rotate(25.354 65.9564 58.658)" fill="#222222"/>
<circle id="Ellipse_24" cx="59.6143" cy="72.0418" r="1.34641" transform="rotate(25.354 59.6143 72.0418)" fill="#222222"/>
<circle id="Ellipse_25" cx="53.2723" cy="85.4261" r="1.34641" transform="rotate(25.354 53.2723 85.4261)" fill="#222222"/>
<circle id="Ellipse_26" cx="90.8076" cy="37.6556" r="1.34641" transform="rotate(25.354 90.8076 37.6556)" fill="#222222"/>
<circle id="Ellipse_27" cx="84.4656" cy="51.0394" r="1.34641" transform="rotate(25.354 84.4656 51.0394)" fill="#222222"/>
<circle id="Ellipse_28" cx="78.1236" cy="64.4236" r="1.34641" transform="rotate(25.354 78.1236 64.4236)" fill="#222222"/>
<circle id="Ellipse_29" cx="71.7816" cy="77.8074" r="1.34641" transform="rotate(25.354 71.7816 77.8074)" fill="#222222"/>
<circle id="Ellipse_30" cx="65.4396" cy="91.1917" r="1.34641" transform="rotate(25.354 65.4396 91.1917)" fill="#222222"/>
<circle id="Ellipse_31" cx="102.975" cy="43.4212" r="1.34641" transform="rotate(25.354 102.975 43.4212)" fill="#222222"/>
<circle id="Ellipse_32" cx="96.6329" cy="56.805" r="1.34641" transform="rotate(25.354 96.6329 56.805)" fill="#222222"/>
<circle id="Ellipse_33" cx="90.2909" cy="70.1888" r="1.34641" transform="rotate(25.354 90.2909 70.1888)" fill="#222222"/>
<circle id="Ellipse_34" cx="83.9488" cy="83.5731" r="1.34641" transform="rotate(25.354 83.9488 83.5731)" fill="#222222"/>
<circle id="Ellipse_35" cx="77.6068" cy="96.9568" r="1.34641" transform="rotate(25.354 77.6068 96.9568)" fill="#222222"/>
<circle id="Ellipse_36" cx="115.142" cy="49.1863" r="1.34641" transform="rotate(25.354 115.142 49.1863)" fill="#222222"/>
<circle id="Ellipse_37" cx="108.8" cy="62.5706" r="1.34641" transform="rotate(25.354 108.8 62.5706)" fill="#222222"/>
<circle id="Ellipse_38" cx="102.458" cy="75.9544" r="1.34641" transform="rotate(25.354 102.458 75.9544)" fill="#222222"/>
<circle id="Ellipse_39" cx="96.1161" cy="89.3382" r="1.34641" transform="rotate(25.354 96.1161 89.3382)" fill="#222222"/>
<circle id="Ellipse_40" cx="89.7741" cy="102.722" r="1.34641" transform="rotate(25.354 89.7741 102.722)" fill="#222222"/>
<circle id="Ellipse_41" cx="127.309" cy="54.952" r="1.34641" transform="rotate(25.354 127.309 54.952)" fill="#222222"/>
<circle id="Ellipse_42" cx="120.967" cy="68.3358" r="1.34641" transform="rotate(25.354 120.967 68.3358)" fill="#222222"/>
<circle id="Ellipse_43" cx="114.625" cy="81.72" r="1.34641" transform="rotate(25.354 114.625 81.72)" fill="#222222"/>
<circle id="Ellipse_44" cx="108.283" cy="95.1038" r="1.34641" transform="rotate(25.354 108.283 95.1038)" fill="#222222"/>
<circle id="Ellipse_45" cx="101.941" cy="108.488" r="1.34641" transform="rotate(25.354 101.941 108.488)" fill="#222222"/>
<circle id="Ellipse_46" cx="139.477" cy="60.7176" r="1.34641" transform="rotate(25.354 139.477 60.7176)" fill="#222222"/>
<circle id="Ellipse_47" cx="133.135" cy="74.1014" r="1.34641" transform="rotate(25.354 133.135 74.1014)" fill="#222222"/>
<circle id="Ellipse_48" cx="126.793" cy="87.4857" r="1.34641" transform="rotate(25.354 126.793 87.4857)" fill="#222222"/>
<circle id="Ellipse_49" cx="120.451" cy="100.869" r="1.34641" transform="rotate(25.354 120.451 100.869)" fill="#222222"/>
<circle id="Ellipse_50" cx="114.109" cy="114.253" r="1.34641" transform="rotate(25.354 114.109 114.253)" fill="#222222"/>
<circle id="Ellipse_51" cx="151.644" cy="66.4827" r="1.34641" transform="rotate(25.354 151.644 66.4827)" fill="#222222"/>
<circle id="Ellipse_52" cx="145.302" cy="79.867" r="1.34641" transform="rotate(25.354 145.302 79.867)" fill="#222222"/>
<circle id="Ellipse_53" cx="138.96" cy="93.2508" r="1.34641" transform="rotate(25.354 138.96 93.2508)" fill="#222222"/>
<circle id="Ellipse_54" cx="132.618" cy="106.635" r="1.34641" transform="rotate(25.354 132.618 106.635)" fill="#222222"/>
<circle id="Ellipse_55" cx="126.276" cy="120.019" r="1.34641" transform="rotate(25.354 126.276 120.019)" fill="#222222"/>
<circle id="Ellipse_56" cx="163.811" cy="72.2484" r="1.34641" transform="rotate(25.354 163.811 72.2484)" fill="#222222"/>
<circle id="Ellipse_57" cx="157.469" cy="85.6321" r="1.34641" transform="rotate(25.354 157.469 85.6321)" fill="#222222"/>
<circle id="Ellipse_58" cx="151.127" cy="99.0164" r="1.34641" transform="rotate(25.354 151.127 99.0164)" fill="#222222"/>
<circle id="Ellipse_59" cx="144.785" cy="112.4" r="1.34641" transform="rotate(25.354 144.785 112.4)" fill="#222222"/>
<circle id="Ellipse_60" cx="138.443" cy="125.784" r="1.34641" transform="rotate(25.354 138.443 125.784)" fill="#222222"/>
<circle id="Ellipse_61" cx="175.978" cy="78.014" r="1.34641" transform="rotate(25.354 175.978 78.014)" fill="#222222"/>
<circle id="Ellipse_62" cx="169.636" cy="91.3978" r="1.34641" transform="rotate(25.354 169.636 91.3978)" fill="#222222"/>
<circle id="Ellipse_63" cx="163.294" cy="104.782" r="1.34641" transform="rotate(25.354 163.294 104.782)" fill="#222222"/>
<circle id="Ellipse_64" cx="156.952" cy="118.166" r="1.34641" transform="rotate(25.354 156.952 118.166)" fill="#222222"/>
<circle id="Ellipse_65" cx="150.61" cy="131.55" r="1.34641" transform="rotate(25.354 150.61 131.55)" fill="#222222"/>
<circle id="Ellipse_66" cx="188.146" cy="83.7791" r="1.34641" transform="rotate(25.354 188.146 83.7791)" fill="#222222"/>
<circle id="Ellipse_67" cx="181.804" cy="97.1634" r="1.34641" transform="rotate(25.354 181.804 97.1634)" fill="#222222"/>
<circle id="Ellipse_68" cx="175.462" cy="110.547" r="1.34641" transform="rotate(25.354 175.462 110.547)" fill="#222222"/>
<circle id="Ellipse_69" cx="169.12" cy="123.931" r="1.34641" transform="rotate(25.354 169.12 123.931)" fill="#222222"/>
<circle id="Ellipse_70" cx="162.778" cy="137.315" r="1.34641" transform="rotate(25.354 162.778 137.315)" fill="#222222"/>
<circle id="Ellipse_71" cx="200.313" cy="89.5447" r="1.34641" transform="rotate(25.354 200.313 89.5447)" fill="#222222"/>
<circle id="Ellipse_72" cx="193.971" cy="102.929" r="1.34641" transform="rotate(25.354 193.971 102.929)" fill="#222222"/>
<circle id="Ellipse_73" cx="187.629" cy="116.313" r="1.34641" transform="rotate(25.354 187.629 116.313)" fill="#222222"/>
<circle id="Ellipse_74" cx="181.287" cy="129.697" r="1.34641" transform="rotate(25.354 181.287 129.697)" fill="#222222"/>
<circle id="Ellipse_75" cx="174.945" cy="143.081" r="1.34641" transform="rotate(25.354 174.945 143.081)" fill="#222222"/>
<circle id="Ellipse_76" cx="51.3933" cy="10.7845" r="1.34641" transform="rotate(25.354 51.3933 10.7845)" fill="#222222"/>
<circle id="Ellipse_77" cx="45.0513" cy="24.1683" r="1.34641" transform="rotate(25.354 45.0513 24.1683)" fill="#222222"/>
<circle id="Ellipse_78" cx="38.7092" cy="37.5521" r="1.34641" transform="rotate(25.354 38.7092 37.5521)" fill="#222222"/>
<circle id="Ellipse_79" cx="32.3672" cy="50.9363" r="1.34641" transform="rotate(25.354 32.3672 50.9363)" fill="#222222"/>
<circle id="Ellipse_80" cx="26.0252" cy="64.3201" r="1.34641" transform="rotate(25.354 26.0252 64.3201)" fill="#222222"/>
<circle id="Ellipse_81" cx="63.5605" cy="16.5501" r="1.34641" transform="rotate(25.354 63.5605 16.5501)" fill="#222222"/>
<circle id="Ellipse_82" cx="57.2185" cy="29.9339" r="1.34641" transform="rotate(25.354 57.2185 29.9339)" fill="#222222"/>
<circle id="Ellipse_83" cx="50.8765" cy="43.3177" r="1.34641" transform="rotate(25.354 50.8765 43.3177)" fill="#222222"/>
<circle id="Ellipse_84" cx="44.5345" cy="56.702" r="1.34641" transform="rotate(25.354 44.5345 56.702)" fill="#222222"/>
<circle id="Ellipse_85" cx="38.1925" cy="70.0858" r="1.34641" transform="rotate(25.354 38.1925 70.0858)" fill="#222222"/>
<circle id="Ellipse_86" cx="75.7278" cy="22.3152" r="1.34641" transform="rotate(25.354 75.7278 22.3152)" fill="#222222"/>
<circle id="Ellipse_87" cx="69.3857" cy="35.6995" r="1.34641" transform="rotate(25.354 69.3857 35.6995)" fill="#222222"/>
<circle id="Ellipse_88" cx="63.0437" cy="49.0833" r="1.34641" transform="rotate(25.354 63.0437 49.0833)" fill="#222222"/>
<circle id="Ellipse_89" cx="56.7017" cy="62.4671" r="1.34641" transform="rotate(25.354 56.7017 62.4671)" fill="#222222"/>
<circle id="Ellipse_90" cx="50.3597" cy="75.8514" r="1.34641" transform="rotate(25.354 50.3597 75.8514)" fill="#222222"/>
<circle id="Ellipse_91" cx="87.895" cy="28.0809" r="1.34641" transform="rotate(25.354 87.895 28.0809)" fill="#222222"/>
<circle id="Ellipse_92" cx="81.553" cy="41.4647" r="1.34641" transform="rotate(25.354 81.553 41.4647)" fill="#222222"/>
<circle id="Ellipse_93" cx="75.211" cy="54.8489" r="1.34641" transform="rotate(25.354 75.211 54.8489)" fill="#222222"/>
<circle id="Ellipse_94" cx="68.869" cy="68.2327" r="1.34641" transform="rotate(25.354 68.869 68.2327)" fill="#222222"/>
<circle id="Ellipse_95" cx="62.527" cy="81.6165" r="1.34641" transform="rotate(25.354 62.527 81.6165)" fill="#222222"/>
<circle id="Ellipse_96" cx="100.062" cy="33.846" r="1.34641" transform="rotate(25.354 100.062 33.846)" fill="#222222"/>
<circle id="Ellipse_97" cx="93.7203" cy="47.2303" r="1.34641" transform="rotate(25.354 93.7203 47.2303)" fill="#222222"/>
<circle id="Ellipse_98" cx="87.3782" cy="60.6141" r="1.34641" transform="rotate(25.354 87.3782 60.6141)" fill="#222222"/>
<circle id="Ellipse_99" cx="81.0362" cy="73.9984" r="1.34641" transform="rotate(25.354 81.0362 73.9984)" fill="#222222"/>
<circle id="Ellipse_100" cx="74.6942" cy="87.3821" r="1.34641" transform="rotate(25.354 74.6942 87.3821)" fill="#222222"/>
<circle id="Ellipse_101" cx="112.229" cy="39.6116" r="1.34641" transform="rotate(25.354 112.229 39.6116)" fill="#222222"/>
<circle id="Ellipse_102" cx="105.888" cy="52.9959" r="1.34641" transform="rotate(25.354 105.888 52.9959)" fill="#222222"/>
<circle id="Ellipse_103" cx="99.5455" cy="66.3797" r="1.34641" transform="rotate(25.354 99.5455 66.3797)" fill="#222222"/>
<circle id="Ellipse_104" cx="93.2035" cy="79.7635" r="1.34641" transform="rotate(25.354 93.2035 79.7635)" fill="#222222"/>
<circle id="Ellipse_105" cx="86.8615" cy="93.1478" r="1.34641" transform="rotate(25.354 86.8615 93.1478)" fill="#222222"/>
<circle id="Ellipse_106" cx="124.397" cy="45.3773" r="1.34641" transform="rotate(25.354 124.397 45.3773)" fill="#222222"/>
<circle id="Ellipse_107" cx="118.055" cy="58.761" r="1.34641" transform="rotate(25.354 118.055 58.761)" fill="#222222"/>
<circle id="Ellipse_108" cx="111.713" cy="72.1453" r="1.34641" transform="rotate(25.354 111.713 72.1453)" fill="#222222"/>
<circle id="Ellipse_109" cx="105.371" cy="85.5291" r="1.34641" transform="rotate(25.354 105.371 85.5291)" fill="#222222"/>
<circle id="Ellipse_110" cx="99.0287" cy="98.9129" r="1.34641" transform="rotate(25.354 99.0287 98.9129)" fill="#222222"/>
<circle id="Ellipse_111" cx="136.564" cy="51.1429" r="1.34641" transform="rotate(25.354 136.564 51.1429)" fill="#222222"/>
<circle id="Ellipse_112" cx="130.222" cy="64.5267" r="1.34641" transform="rotate(25.354 130.222 64.5267)" fill="#222222"/>
<circle id="Ellipse_113" cx="123.88" cy="77.9105" r="1.34641" transform="rotate(25.354 123.88 77.9105)" fill="#222222"/>
<circle id="Ellipse_114" cx="117.538" cy="91.2947" r="1.34641" transform="rotate(25.354 117.538 91.2947)" fill="#222222"/>
<circle id="Ellipse_115" cx="111.196" cy="104.679" r="1.34641" transform="rotate(25.354 111.196 104.679)" fill="#222222"/>
<circle id="Ellipse_116" cx="148.731" cy="56.908" r="1.34641" transform="rotate(25.354 148.731 56.908)" fill="#222222"/>
<circle id="Ellipse_117" cx="142.389" cy="70.2923" r="1.34641" transform="rotate(25.354 142.389 70.2923)" fill="#222222"/>
<circle id="Ellipse_118" cx="136.047" cy="83.6761" r="1.34641" transform="rotate(25.354 136.047 83.6761)" fill="#222222"/>
<circle id="Ellipse_119" cx="129.705" cy="97.0604" r="1.34641" transform="rotate(25.354 129.705 97.0604)" fill="#222222"/>
<circle id="Ellipse_120" cx="123.363" cy="110.444" r="1.34641" transform="rotate(25.354 123.363 110.444)" fill="#222222"/>
<circle id="Ellipse_121" cx="160.899" cy="62.6736" r="1.34641" transform="rotate(25.354 160.899 62.6736)" fill="#222222"/>
<circle id="Ellipse_122" cx="154.557" cy="76.0574" r="1.34641" transform="rotate(25.354 154.557 76.0574)" fill="#222222"/>
<circle id="Ellipse_123" cx="148.214" cy="89.4417" r="1.34641" transform="rotate(25.354 148.214 89.4417)" fill="#222222"/>
<circle id="Ellipse_124" cx="141.872" cy="102.826" r="1.34641" transform="rotate(25.354 141.872 102.826)" fill="#222222"/>
<circle id="Ellipse_125" cx="135.53" cy="116.21" r="1.34641" transform="rotate(25.354 135.53 116.21)" fill="#222222"/>
<circle id="Ellipse_126" cx="173.066" cy="68.4393" r="1.34641" transform="rotate(25.354 173.066 68.4393)" fill="#222222"/>
<circle id="Ellipse_127" cx="166.724" cy="81.8231" r="1.34641" transform="rotate(25.354 166.724 81.8231)" fill="#222222"/>
<circle id="Ellipse_128" cx="160.382" cy="95.2068" r="1.34641" transform="rotate(25.354 160.382 95.2068)" fill="#222222"/>
<circle id="Ellipse_129" cx="154.04" cy="108.591" r="1.34641" transform="rotate(25.354 154.04 108.591)" fill="#222222"/>
<circle id="Ellipse_130" cx="147.698" cy="121.975" r="1.34641" transform="rotate(25.354 147.698 121.975)" fill="#222222"/>
<circle id="Ellipse_131" cx="185.233" cy="74.2044" r="1.34641" transform="rotate(25.354 185.233 74.2044)" fill="#222222"/>
<circle id="Ellipse_132" cx="178.891" cy="87.5887" r="1.34641" transform="rotate(25.354 178.891 87.5887)" fill="#222222"/>
<circle id="Ellipse_133" cx="172.549" cy="100.972" r="1.34641" transform="rotate(25.354 172.549 100.972)" fill="#222222"/>
<circle id="Ellipse_134" cx="166.207" cy="114.356" r="1.34641" transform="rotate(25.354 166.207 114.356)" fill="#222222"/>
<circle id="Ellipse_135" cx="159.865" cy="127.741" r="1.34641" transform="rotate(25.354 159.865 127.741)" fill="#222222"/>
<circle id="Ellipse_136" cx="197.4" cy="79.97" r="1.34641" transform="rotate(25.354 197.4 79.97)" fill="#222222"/>
<circle id="Ellipse_137" cx="191.058" cy="93.3538" r="1.34641" transform="rotate(25.354 191.058 93.3538)" fill="#222222"/>
<circle id="Ellipse_138" cx="184.716" cy="106.738" r="1.34641" transform="rotate(25.354 184.716 106.738)" fill="#222222"/>
<circle id="Ellipse_139" cx="178.374" cy="120.122" r="1.34641" transform="rotate(25.354 178.374 120.122)" fill="#222222"/>
<circle id="Ellipse_140" cx="172.032" cy="133.506" r="1.34641" transform="rotate(25.354 172.032 133.506)" fill="#222222"/>
<circle id="Ellipse_141" cx="209.568" cy="85.7357" r="1.34641" transform="rotate(25.354 209.568 85.7357)" fill="#222222"/>
<circle id="Ellipse_142" cx="203.226" cy="99.1194" r="1.34641" transform="rotate(25.354 203.226 99.1194)" fill="#222222"/>
<circle id="Ellipse_143" cx="196.884" cy="112.503" r="1.34641" transform="rotate(25.354 196.884 112.503)" fill="#222222"/>
<circle id="Ellipse_144" cx="190.542" cy="125.888" r="1.34641" transform="rotate(25.354 190.542 125.888)" fill="#222222"/>
<circle id="Ellipse_145" cx="184.2" cy="139.271" r="1.34641" transform="rotate(25.354 184.2 139.271)" fill="#222222"/>
</g>
</g>
</svg>
